<svg xmlns="http://www.w3.org/2000/svg" width="19" height="16" viewBox="0 0 19 16">
    <g fill="none" fill-rule="evenodd">
        <g fill="#FFF" fill-rule="nonzero">
            <g>
                <g>
                    <path d="M19 1.776c-.699.3-1.45.504-2.238.596.805-.468 1.422-1.211 1.713-2.096-.753.434-1.587.75-2.475.919C15.29.46 14.276 0 13.155 0c-2.152 0-3.898 1.696-3.898 3.788 0 .296.035.583.1.861-3.24-.158-6.111-1.666-8.034-3.956-.335.56-.527 1.21-.527 1.903 0 1.314.688 2.474 1.734 3.152-.64-.02-1.24-.19-1.766-.474v.05c0 1.834 1.343 3.364 3.127 3.712-.328.086-.672.132-1.027.132-.25 0-.496-.023-.734-.067.497 1.504 1.936 2.6 3.642 2.629-1.335 1.016-3.016 1.622-4.841 1.622-.315 0-.626-.018-.931-.053C1.725 14.374 3.774 15 5.975 15c7.17 0 11.091-5.77 11.091-10.773 0-.163-.004-.327-.012-.49.762-.534 1.423-1.2 1.944-1.959L19 1.776z" transform="translate(-1153 -468) translate(1120 467) translate(33 1.5)"/>
                </g>
            </g>
        </g>
    </g>
</svg>
