<svg xmlns="http://www.w3.org/2000/svg" xmlns:xlink="http://www.w3.org/1999/xlink" width="438" height="462" viewBox="0 0 438 462">
    <defs>
        <radialGradient id="5pym545tna" cx="50%" cy="50%" r="58.522%" fx="50%" fy="50%">
            <stop offset="0%" stop-color="#3C3C49"/>
            <stop offset="0%" stop-color="#3C3C49"/>
            <stop offset="0%" stop-color="#3C3C49"/>
            <stop offset="100%" stop-color="#3C3C49" stop-opacity="0"/>
        </radialGradient>
        <radialGradient id="lowgznnlbb" cx="50%" cy="50%" r="55.887%" fx="50%" fy="50%">
            <stop offset="0%" stop-color="#F06938"/>
            <stop offset="46.177%" stop-color="#F06938"/>
            <stop offset="100%" stop-color="#F06938" stop-opacity="0"/>
        </radialGradient>
        <filter id="gosxyrdtzc" width="305.8%" height="305.8%" x="-102.9%" y="-102.9%" filterUnits="objectBoundingBox">
            <feOffset in="SourceAlpha" result="shadowOffsetOuter1"/>
            <feGaussianBlur in="shadowOffsetOuter1" result="shadowBlurOuter1" stdDeviation="29.5"/>
            <feColorMatrix in="shadowBlurOuter1" values="0 0 0 0 0.941176471 0 0 0 0 0.411764706 0 0 0 0 0.219607843 0 0 0 0.0940820654 0"/>
        </filter>
        <circle id="rtgfaeur3d" cx="223" cy="225.097" r="43"/>
    </defs>
    <g fill="none" fill-rule="evenodd">
        <g transform="translate(0 5.903)">
            <path fill="url(#5pym545tna)" fill-rule="nonzero" d="M352 331.097c23.748 0 43 19.252 43 43 0 23.749-19.252 43-43 43s-43-19.251-43-43c0-23.748 19.252-43 43-43zm0 2c-22.644 0-41 18.357-41 41 0 22.644 18.356 41 41 41s41-18.356 41-41c0-22.643-18.356-41-41-41zm0 5c19.882 0 36 16.118 36 36 0 19.883-16.118 36-36 36s-36-16.117-36-36c0-19.882 16.118-36 36-36zm0 2c-18.778 0-34 15.223-34 34 0 18.778 15.222 34 34 34s34-15.222 34-34c0-18.777-15.222-34-34-34zm0 5c16.016 0 29 12.984 29 29 0 16.017-12.984 29-29 29s-29-12.983-29-29c0-16.016 12.984-29 29-29zm0 2c-14.912 0-27 12.089-27 27 0 14.912 12.088 27 27 27s27-12.088 27-27c0-14.911-12.088-27-27-27zm0 5c12.15 0 22 9.85 22 22s-9.85 22-22 22-22-9.85-22-22 9.85-22 22-22zm0 2c-11.046 0-20 8.955-20 20 0 11.046 8.954 20 20 20s20-8.954 20-20c0-11.045-8.954-20-20-20zm0 5c8.284 0 15 6.716 15 15 0 8.285-6.716 15-15 15-8.284 0-15-6.715-15-15 0-8.284 6.716-15 15-15zm0 2c-7.18 0-13 5.82-13 13s5.82 13 13 13 13-5.82 13-13-5.82-13-13-13zM352 45.097c23.748 0 43 19.252 43 43 0 23.749-19.252 43-43 43s-43-19.251-43-43c0-23.748 19.252-43 43-43zm0 2c-22.644 0-41 18.357-41 41 0 22.644 18.356 41 41 41s41-18.356 41-41c0-22.643-18.356-41-41-41zm0 5c19.882 0 36 16.118 36 36 0 19.883-16.118 36-36 36s-36-16.117-36-36c0-19.882 16.118-36 36-36zm0 2c-18.778 0-34 15.223-34 34 0 18.778 15.222 34 34 34s34-15.222 34-34c0-18.777-15.222-34-34-34zm0 5c16.016 0 29 12.984 29 29 0 16.017-12.984 29-29 29s-29-12.983-29-29c0-16.016 12.984-29 29-29zm0 2c-14.912 0-27 12.089-27 27 0 14.912 12.088 27 27 27s27-12.088 27-27c0-14.911-12.088-27-27-27zm0 5c12.15 0 22 9.85 22 22s-9.85 22-22 22-22-9.85-22-22 9.85-22 22-22zm0 2c-11.046 0-20 8.955-20 20 0 11.046 8.954 20 20 20s20-8.954 20-20c0-11.045-8.954-20-20-20zm0 5c8.284 0 15 6.716 15 15 0 8.285-6.716 15-15 15-8.284 0-15-6.715-15-15 0-8.284 6.716-15 15-15zm0 2c-7.18 0-13 5.82-13 13s5.82 13 13 13 13-5.82 13-13-5.82-13-13-13zM43 139.097c23.748 0 43 19.252 43 43 0 23.749-19.252 43-43 43s-43-19.251-43-43c0-23.748 19.252-43 43-43zm0 2c-22.644 0-41 18.357-41 41 0 22.644 18.356 41 41 41s41-18.356 41-41c0-22.643-18.356-41-41-41zm0 5c19.882 0 36 16.118 36 36 0 19.883-16.118 36-36 36s-36-16.117-36-36c0-19.882 16.118-36 36-36zm0 2c-18.778 0-34 15.223-34 34 0 18.778 15.222 34 34 34s34-15.222 34-34c0-18.777-15.222-34-34-34zm0 5c16.016 0 29 12.984 29 29 0 16.017-12.984 29-29 29s-29-12.983-29-29c0-16.016 12.984-29 29-29zm0 2c-14.912 0-27 12.089-27 27 0 14.912 12.088 27 27 27s27-12.088 27-27c0-14.911-12.088-27-27-27zm0 5c12.15 0 22 9.85 22 22s-9.85 22-22 22-22-9.85-22-22 9.85-22 22-22zm0 2c-11.046 0-20 8.955-20 20 0 11.046 8.954 20 20 20s20-8.954 20-20c0-11.045-8.954-20-20-20zm0 5c8.284 0 15 6.716 15 15 0 8.285-6.716 15-15 15-8.284 0-15-6.715-15-15 0-8.284 6.716-15 15-15zm0 2c-7.18 0-13 5.82-13 13s5.82 13 13 13 13-5.82 13-13-5.82-13-13-13z" opacity=".2"/>
            <path fill="url(#lowgznnlbb)" fill-rule="nonzero" d="M223 161.097c35.346 0 64 28.654 64 64 0 35.347-28.654 64-64 64-35.346 0-64-28.653-64-64 0-35.346 28.654-64 64-64zm0 2c-34.242 0-62 27.759-62 62 0 34.242 27.758 62 62 62 34.242 0 62-27.758 62-62 0-34.241-27.758-62-62-62zm0 5c31.48 0 57 25.52 57 57s-25.52 57-57 57-57-25.52-57-57 25.52-57 57-57zm0 2c-30.376 0-55 24.625-55 55 0 30.376 24.624 55 55 55s55-24.624 55-55c0-30.375-24.624-55-55-55zm0 5c27.614 0 50 22.386 50 50 0 27.615-22.386 50-50 50s-50-22.385-50-50c0-27.614 22.386-50 50-50zm0 2c-26.51 0-48 21.49-48 48s21.49 48 48 48 48-21.49 48-48-21.49-48-48-48zm0 5c23.748 0 43 19.252 43 43 0 23.749-19.252 43-43 43s-43-19.251-43-43c0-23.748 19.252-43 43-43zm0 2c-22.644 0-41 18.357-41 41 0 22.644 18.356 41 41 41s41-18.356 41-41c0-22.643-18.356-41-41-41zm0 5c19.882 0 36 16.118 36 36 0 19.883-16.118 36-36 36s-36-16.117-36-36c0-19.882 16.118-36 36-36zm0 2c-18.778 0-34 15.223-34 34 0 18.778 15.222 34 34 34s34-15.222 34-34c0-18.777-15.222-34-34-34zm0 5c16.016 0 29 12.984 29 29 0 16.017-12.984 29-29 29s-29-12.983-29-29c0-16.016 12.984-29 29-29zm0 2c-14.912 0-27 12.089-27 27 0 14.912 12.088 27 27 27s27-12.088 27-27c0-14.911-12.088-27-27-27zm0 5c12.15 0 22 9.85 22 22s-9.85 22-22 22-22-9.85-22-22 9.85-22 22-22zm0 2c-11.046 0-20 8.955-20 20 0 11.046 8.954 20 20 20s20-8.954 20-20c0-11.045-8.954-20-20-20zm0 5c8.284 0 15 6.716 15 15 0 8.285-6.716 15-15 15-8.284 0-15-6.715-15-15 0-8.284 6.716-15 15-15zm0 2c-7.18 0-13 5.82-13 13s5.82 13 13 13 13-5.82 13-13-5.82-13-13-13z" opacity=".1"/>
            <ellipse cx="223" cy="225.097" stroke="#5A5A61" stroke-width="4" rx="213" ry="85"/>
            <ellipse cx="223" cy="225.097" stroke="#5A5A61" stroke-width="4" rx="213" ry="85" transform="rotate(60 223 225.097)"/>
            <ellipse cx="223" cy="225.097" stroke="#5A5A61" stroke-width="4" rx="214" ry="85" transform="rotate(120 223 225.097)"/>
            <circle cx="352" cy="88.097" r="24.5" fill="#33333D" stroke="#1F1F24" stroke-width="5"/>
            <g>
                <use fill="#000" filter="url(#gosxyrdtzc)" xlink:href="#rtgfaeur3d"/>
                <use fill="#F06938" xlink:href="#rtgfaeur3d"/>
            </g>
            <g>
                <path d="M0 0L40 0 40 40 0 40z" transform="translate(203 205.097)"/>
                <path fill="#1F1F24" fill-rule="nonzero" d="M20 1.667L5 8.333v10c0 9.25 6.4 17.9 15 20 8.6-2.1 15-10.75 15-20v-10L20 1.667zm0 18.316h11.667C30.783 26.85 26.2 32.967 20 34.883V20H8.333v-9.5L20 5.317v14.666z" transform="translate(203 205.097)"/>
            </g>
            <circle cx="43" cy="182.097" r="24.5" fill="#33333D" stroke="#1F1F24" stroke-width="5"/>
            <circle cx="352" cy="374.097" r="24.5" fill="#33333D" stroke="#1F1F24" stroke-width="5"/>
            <g>
                <path d="M0 0H24V24H0z" transform="translate(340 362.097)"/>
                <g fill="#787882" fill-rule="nonzero">
                    <path d="M16 0c1.1 0 2 .9 2 2h-7v6h5V6h-2V4h4v4c0 1.1-.9 2-2 2h-5c-1.1 0-2-.9-2-2V2c0-1.1.9-2 2-2zM7 0v2H2v2h3c1.1 0 2 .9 2 2v2c0 1.1-.9 2-2 2H0V8h5V6H0V0h7z" transform="translate(340 362.097) translate(3 7)"/>
                </g>
            </g>
            <g>
                <path d="M0 0L24 0 24 24 0 24z" transform="translate(340 76.097)"/>
                <path fill="#73737D" fill-rule="nonzero" d="M1 9l2 2c4.97-4.97 13.03-4.97 18 0l2-2C16.93 2.93 7.08 2.93 1 9zm8 8l3 3 3-3c-1.65-1.66-4.34-1.66-6 0zm-4-4l2 2c2.76-2.76 7.24-2.76 10 0l2-2C15.14 9.14 8.87 9.14 5 13z" transform="translate(340 76.097)"/>
            </g>
            <g>
                <path d="M0 0L24 0 24 24 0 24z" transform="translate(31 170.097)"/>
                <path fill="#787882" fill-rule="nonzero" d="M12 2C6.48 2 2 6.48 2 12s4.48 10 10 10 10-4.48 10-10S17.52 2 12 2zm0 3c1.66 0 3 1.34 3 3s-1.34 3-3 3-3-1.34-3-3 1.34-3 3-3zm0 14.2c-2.5 0-4.71-1.28-6-3.22.03-1.99 4-3.08 6-3.08 1.99 0 5.97 1.09 6 3.08-1.29 1.94-3.5 3.22-6 3.22z" transform="translate(31 170.097)"/>
            </g>
        </g>
    </g>
</svg>
