<svg xmlns="http://www.w3.org/2000/svg" width="84" height="14" viewBox="0 0 84 14">
    <g fill="none" fill-rule="evenodd" opacity=".8">
        <g fill="#717180" fill-rule="nonzero">
            <g>
                <g>
                    <path d="M3.996 13.828H0V.226h6.912l7.93 10.155V.226h3.996v13.602h-6.772L3.996 3.5v10.328M37.96 9.622c0 1.89-.334 2.542-.887 3.167-.848.93-2.081 1.211-4.458 1.211H25.79c-2.377 0-3.612-.28-4.459-1.21-.553-.626-.887-1.278-.887-3.168V4.378c0-1.89.334-2.54.887-3.166C22.179.28 23.413 0 25.791 0h6.823c2.377 0 3.61.28 4.458 1.212.553.626.887 1.277.887 3.166v5.244m-5.513.932c.913 0 1.234-.054 1.453-.253.205-.186.295-.426.295-1.226v-4.15c0-.8-.09-1.038-.295-1.225-.219-.2-.54-.253-1.453-.253h-6.489c-.913 0-1.234.053-1.452.253-.206.187-.296.425-.296 1.225v4.15c0 .8.09 1.04.296 1.226.218.199.54.253 1.452.253h6.489M43.766.226v13.602h-4.175V.226h4.176m7.055 0h5.513l-7.44 6.362 8.392 7.24h-5.9l-7.62-7.094L50.822.226m7.234 0h4.177v13.602h-4.177m20.1 0l-1.236-2.37h-8.08l-1.222 2.369h-4.614l7.403-13.6h5.191L83 13.826h-4.844M70.29 8.505h5.192L72.886 3.58l-2.595 4.924" transform="translate(-632 -849) translate(274 841) translate(358.15 8)"/>
                </g>
            </g>
        </g>
    </g>
</svg>
