<svg xmlns="http://www.w3.org/2000/svg" width="178" height="32" viewBox="0 0 178 32">
    <defs>
        <linearGradient id="554eujmmja" x1="59.324%" x2="31.185%" y1="103.259%" y2="8.659%">
            <stop offset="0%" stop-color="#FAA619"/>
            <stop offset="7%" stop-color="#FAA619"/>
            <stop offset="93%" stop-color="#EF4023"/>
            <stop offset="100%" stop-color="#EF4023"/>
        </linearGradient>
    </defs>
    <g fill="none" fill-rule="evenodd">
        <g fill-rule="nonzero">
            <g>
                <path fill="#FFF" d="M177.792 10.865l-1.686 1.907c-.945-.978-2.08-1.466-3.401-1.466-1.32 0-1.98.458-1.98 1.379 0 .372.142.679.428.923.287.244.784.505 1.493.778l1.39.56c1.38.565 2.387 1.177 3.017 1.833.631.654.947 1.49.947 2.508 0 1.39-.513 2.47-1.54 3.244-1.023.773-2.305 1.16-3.843 1.16-2.466 0-4.418-.93-5.855-2.79l1.773-1.937c1.322 1.369 2.683 2.056 4.082 2.056.67 0 1.227-.137 1.67-.412.444-.275.666-.674.666-1.204 0-.43-.163-.763-.487-.997-.326-.235-.844-.499-1.554-.792l-1.478-.616c-1.283-.53-2.233-1.107-2.855-1.733-.62-.626-.93-1.448-.93-2.464 0-1.292.482-2.308 1.449-3.052.966-.745 2.188-1.116 3.667-1.116 2.09 0 3.766.742 5.027 2.231m-16.03-.66c.968 1.046 1.45 2.43 1.45 4.153v9.009h-3.105v-8.6c0-.997-.29-1.803-.872-2.42-.582-.617-1.346-.924-2.292-.924-.966 0-1.76.313-2.381.939-.621.626-.932 1.428-.932 2.406v8.599h-3.105V8.957h2.899v1.437c1.083-1.172 2.534-1.76 4.347-1.76 1.695 0 3.026.523 3.992 1.57M136.878 12.2c-.76.636-1.258 1.493-1.494 2.568h7.896c-.02-1.075-.383-1.932-1.094-2.568-.71-.636-1.588-.953-2.633-.953-1.024 0-1.917.317-2.675.953m9.27 4.975h-10.822c.196 1.194.719 2.122 1.566 2.787.848.666 1.903.997 3.165.997 1.518 0 2.928-.565 4.228-1.7l1.48 2.112c-1.657 1.546-3.59 2.32-5.799 2.32-2.245 0-4.108-.72-5.588-2.158-1.479-1.438-2.217-3.223-2.217-5.356 0-2.113.724-3.898 2.173-5.356 1.448-1.458 3.23-2.187 5.338-2.187 1.932 0 3.534.626 4.805 1.878 1.272 1.252 1.908 2.827 1.908 4.726 0 .606-.079 1.252-.236 1.937m-18.454 6.192h-3.105V1.357h3.105v22.01zm-7.216-14.41v2.73h-.946c-1.223 0-2.238.348-3.046 1.04-.808.695-1.213 1.678-1.213 2.95v7.69h-3.104V8.957h2.898v1.878c1.023-1.349 2.434-2.026 4.228-2.026.434 0 .83.05 1.183.148M98.077 12.2c-.76.636-1.256 1.493-1.492 2.568h7.895c-.02-1.075-.384-1.932-1.093-2.568-.711-.636-1.588-.953-2.633-.953-1.025 0-1.917.317-2.677.953m9.272 4.975H96.525c.197 1.194.72 2.122 1.568 2.787.847.666 1.903.997 3.164.997 1.517 0 2.928-.565 4.228-1.7l1.48 2.112c-1.656 1.546-3.59 2.32-5.798 2.32-2.246 0-4.11-.72-5.588-2.158-1.48-1.438-2.218-3.223-2.218-5.356 0-2.113.723-3.898 2.173-5.356 1.449-1.458 3.228-2.187 5.338-2.187 1.932 0 3.534.626 4.805 1.878 1.272 1.252 1.908 2.827 1.908 4.726 0 .606-.08 1.252-.237 1.937m-21.41 2.377c.847-.881 1.271-2.016 1.271-3.405 0-1.37-.424-2.495-1.271-3.375-.848-.88-1.903-1.32-3.165-1.32-1.201 0-2.232.405-3.09 1.217-.857.812-1.287 1.981-1.287 3.508 0 1.545.43 2.714 1.287 3.506.858.794 1.889 1.19 3.09 1.19 1.262 0 2.317-.44 3.165-1.321m2.44-8.761c1.35 1.437 2.026 3.233 2.026 5.386 0 2.15-.671 3.942-2.011 5.37-1.34 1.427-3.036 2.143-5.087 2.143-1.065 0-2.046-.206-2.943-.616-.897-.412-1.612-.99-2.144-1.733v2.026h-2.898V1.357h3.104v9.36c1.145-1.388 2.761-2.083 4.851-2.083 2.05 0 3.752.718 5.102 2.157M72.215 8.957L65.147 25.01c-.611 1.369-1.34 2.37-2.188 3.007-.849.637-1.893.954-3.135.954-.809 0-1.607-.097-2.396-.294v-2.61c.907.078 1.479.116 1.716.116.729 0 1.35-.151 1.862-.454.513-.303.947-.857 1.302-1.659l.59-1.35-5.796-13.764h3.342l4.171 10.506 4.288-10.506h3.312zm-19.68.573c1.055.596 1.897 1.412 2.529 2.45l-2.19 1.703c-1.045-1.468-2.344-2.202-3.904-2.202-1.32 0-2.409.45-3.267 1.35-.858.9-1.286 2.005-1.286 3.316 0 1.351.428 2.47 1.286 3.36.858.891 1.947 1.335 3.267 1.335 1.54 0 2.84-.723 3.904-2.171l2.19 1.673c-1.401 2.231-3.441 3.346-6.123 3.346-2.15 0-3.967-.73-5.456-2.187-1.489-1.456-2.233-3.242-2.233-5.356 0-2.113.744-3.892 2.233-5.34s3.307-2.173 5.456-2.173c1.341 0 2.54.298 3.593.896"/>
                <path fill="#FFF" d="M16.124 0C7.233 0 0 7.178 0 16c0 8.823 7.233 16 16.124 16 8.89 0 16.123-7.177 16.123-16 0-8.822-7.233-16-16.123-16m0 1.208C24.357 1.208 31.03 7.83 31.03 16s-6.673 14.792-14.906 14.792C7.89 30.792 1.217 24.17 1.217 16S7.89 1.208 16.124 1.208"/>
                <path fill="#FFF" d="M26.813 7.82c.485 1.725-.53 3.515-2.27 3.998-1.738.482-3.543-.526-4.028-2.252-.487-1.726.529-3.516 2.268-3.999 1.74-.482 3.543.527 4.03 2.252"/>
                <path fill="url(#554eujmmja)" d="M2.738 16c0 7.337 5.993 13.284 13.386 13.284 3.685 0 7.023-1.479 9.443-3.87l-4.195-4.162c-1.347 1.325-3.201 2.144-5.248 2.144-4.116 0-7.454-3.31-7.454-7.396 0-4.084 3.338-7.396 7.454-7.396V2.718C8.73 2.718 2.738 8.664 2.738 16z"/>
            </g>
        </g>
    </g>
</svg>
