<svg xmlns="http://www.w3.org/2000/svg" width="48" height="48" viewBox="0 0 48 48">
    <defs>
        <linearGradient id="487h36m0oa" x1="59.3%" x2="31.232%" y1="103.259%" y2="8.659%">
            <stop offset="0%" stop-color="#FAA619"/>
            <stop offset="7%" stop-color="#FAA619"/>
            <stop offset="93%" stop-color="#EF4023"/>
            <stop offset="100%" stop-color="#EF4023"/>
        </linearGradient>
    </defs>
    <g fill="none" fill-rule="evenodd">
        <g fill-rule="nonzero">
            <g>
                <path fill="#FFF" d="M24.156 0C10.836 0 0 10.767 0 24c0 13.234 10.835 24 24.156 24 13.32 0 24.154-10.766 24.154-24 0-13.233-10.836-24-24.155-24m0 1.811c12.335 0 22.332 9.935 22.332 22.189 0 12.255-9.997 22.189-22.332 22.189-12.334 0-22.332-9.934-22.332-22.189 0-12.254 9.998-22.189 22.332-22.189" transform="translate(-160 -88) translate(160 88)"/>
                <path fill="#FFF" d="M40.169 11.729c.727 2.589-.794 5.274-3.4 5.998-2.604.723-5.308-.79-6.036-3.378-.728-2.589.794-5.274 3.399-5.998 2.605-.723 5.308.79 6.037 3.378" transform="translate(-160 -88) translate(160 88)"/>
                <path fill="url(#487h36m0oa)" d="M4.103 24c0 11.005 8.977 19.926 20.052 19.926 5.522 0 10.522-2.218 14.147-5.804l-6.284-6.244c-2.018 1.987-4.796 3.216-7.863 3.216-6.166 0-11.166-4.966-11.166-11.094 0-6.127 5-11.094 11.166-11.094v-8.83C13.08 4.076 4.103 12.996 4.103 24z" transform="translate(-160 -88) translate(160 88)"/>
            </g>
        </g>
    </g>
</svg>
