<svg xmlns="http://www.w3.org/2000/svg" width="110" height="20" viewBox="0 0 110 20">
    <g fill="none" fill-rule="evenodd" opacity=".8">
        <g fill="#717180" fill-rule="nonzero">
            <g>
                <g>
                    <path d="M29.42 5.74c.292 0 .542.236.542.542v10.355c0 .291-.264.528-.542.528h-1.405c-.265 0-.529-.209-.529-.5v-.96c-.71 1.043-1.933 1.765-3.714 1.765-2.977 0-4.813-1.973-4.813-4.906v-6.31c0-.292.265-.528.543-.528h1.405c.292 0 .528.236.528.528v5.907c0 1.904 1.002 3.17 2.977 3.17 1.933 0 3.074-1.307 3.074-3.142V6.254c0-.292.264-.528.529-.528h1.405M8.694 0C3.88 0 0 3.739 0 8.728c0 5.004 3.88 8.729 8.694 8.729.82 0 1.613-.112 2.364-.32l.946 2.432c.098.264.292.431.64.431h1.502c.362 0 .626-.236.46-.695l-1.225-3.183c2.407-1.515 4.006-4.197 4.006-7.408C17.387 3.74 13.507 0 8.694 0m3.783 13.801l-1.099-2.849c-.097-.236-.292-.459-.71-.459H9.237c-.361 0-.64.237-.473.695l1.447 3.739c-.473.125-.988.18-1.516.18-3.52 0-6.023-2.765-6.023-6.379 0-3.613 2.504-6.38 6.023-6.38 3.519 0 6.023 2.767 6.023 6.38 0 2.113-.849 3.92-2.24 5.073m96.48 2.78c.125.292-.028.57-.376.57h-1.572c-.292 0-.528-.14-.626-.431l-2.907-7.811-2.949 7.81c-.125.307-.334.432-.626.432h-1.405c-.292 0-.5-.125-.625-.431l-2.977-7.853-2.935 7.853c-.125.292-.334.43-.626.43h-1.475c-.292 0-.5-.138-.626-.43l-2.907-7.853-3.004 7.853c-.126.306-.334.43-.626.43H81.29c-.292 0-.5-.124-.626-.43l-2.935-7.853-2.935 7.853c-.097.292-.334.43-.626.43h-1.53c-.362 0-.5-.291-.376-.569l3.979-10.396c.125-.306.333-.459.625-.459h1.711c.292 0 .501.14.626.459l2.866 7.588 2.837-7.588c.126-.306.334-.459.626-.459h1.683c.293 0 .501.14.626.459l2.81 7.588 2.81-7.588c.125-.306.334-.459.626-.459h1.697c.292 0 .5.14.626.459l2.852 7.588 2.781-7.588c.126-.306.334-.459.626-.459h1.711c.292 0 .501.14.626.459l3.95 10.396M43.038 5.741h-1.404c-.293 0-.543.235-.543.541v.945c-.71-1.07-2.1-1.834-3.742-1.834-3.102 0-5.758 2.446-5.758 6.018 0 3.613 2.67 6.046 5.744 6.046 1.67 0 3.019-.765 3.77-1.835v1c0 .293.264.529.542.529h1.405c.292 0 .529-.236.529-.528V6.283c-.014-.307-.25-.543-.543-.543m-5.424 9.437c-2.045 0-3.506-1.668-3.506-3.739 0-2.098 1.447-3.71 3.506-3.71 2.03 0 3.505 1.612 3.505 3.71-.014 2.085-1.489 3.74-3.505 3.74m22.186.36c.306.376.042.668-.125.793-.974.736-2.268 1.14-3.672 1.14-3.548 0-5.912-2.6-5.912-6.019s2.364-6.045 5.912-6.045c1.404 0 2.684.403 3.672 1.14.167.124.403.374.125.791l-.668.932c-.264.361-.57.264-.834.097-.626-.375-1.364-.695-2.212-.695-2.073 0-3.45 1.668-3.45 3.78 0 2.113 1.377 3.767 3.45 3.767.862 0 1.544-.334 2.17-.695.264-.139.542-.264.835.125l.709.89zM66.42 5.42c-3.338 0-5.995 2.613-5.995 6.018 0 3.433 2.67 6.019 5.995 6.019 3.338 0 5.995-2.6 5.995-6.019.014-3.39-2.657-6.018-5.995-6.018m0 9.743c-2.045 0-3.505-1.64-3.505-3.71 0-2.1 1.446-3.712 3.505-3.712 2.045 0 3.505 1.613 3.505 3.711 0 2.071-1.446 3.711-3.505 3.711M47.962.306c.306 0 .528.264.528.542v15.76c0 .293-.209.543-.528.543h-1.405c-.292 0-.543-.264-.543-.542V.862c0-.292.264-.542.543-.542h1.405" transform="translate(-890 -847) translate(274 841) translate(616.15 6)"/>
                </g>
            </g>
        </g>
    </g>
</svg>
