<svg xmlns="http://www.w3.org/2000/svg" width="61" height="30" viewBox="0 0 61 30">
    <g fill="none" fill-rule="evenodd" opacity=".8">
        <g fill="#717180" fill-rule="nonzero">
            <g>
                <g>
                    <path d="M54.008 13.691H60V19.822000000000003H54.008zM36.033 13.691H42.025V19.822000000000003H36.033zM18.332 13.691H24.324V19.822000000000003H18.332zM0 13.691H5.992V19.822000000000003H0z" transform="translate(-516 -841) translate(274 841) translate(242.15)"/>
                    <path d="M14.392 1.453h.71c4.593 0 6.733 2.463 7.628 9.031l1.421-.063L23.961 0H.596l-.23 10.421 1.368.063c.237-2.463.52-3.79 1.138-5.116 1.09-2.463 3.366-3.915 6.163-3.915h.996v22.673c0 2.4-.143 3.158-.711 3.727-.474.442-1.423.631-2.514.631h-1.09V30h12.991v-1.516H17.61c-1.084 0-2.039-.19-2.506-.631-.569-.569-.71-1.327-.71-3.727V1.453" transform="translate(-516 -841) translate(274 841) translate(242.15)"/>
                </g>
            </g>
        </g>
    </g>
</svg>
