<?xml version="1.0" standalone="no"?>
<!DOCTYPE svg PUBLIC "-//W3C//DTD SVG 1.1//EN" "http://www.w3.org/Graphics/SVG/1.1/DTD/svg11.dtd" >
<svg xmlns="http://www.w3.org/2000/svg" xmlns:xlink="http://www.w3.org/1999/xlink" version="1.1">
<metadata>
Created by FontForge 20170731 at Fri Apr 23 14:46:30 2021
 By Aleksey,,,
Copyright (c) 2020 by Alfredo Marco Pradil. All rights reserved.
</metadata>
<defs>
<font id="OpenSauceOne-Medium" horiz-adv-x="0" >
  <font-face 
    font-family="Open Sauce One Medium"
    font-weight="500"
    font-stretch="normal"
    units-per-em="1000"
    panose-1="0 0 6 0 0 0 0 0 0 0"
    ascent="800"
    descent="-200"
    x-height="557"
    cap-height="763"
    bbox="-399 -237 1151 996"
    underline-thickness="50"
    underline-position="-150"
    unicode-range="U+0020-2212"
  />
<missing-glyph horiz-adv-x="607" 
d="M533 0h-460v557h460v-557zM113 517v-477h380v477h-380z" />
    <glyph glyph-name="fi" unicode="fi" horiz-adv-x="603" 
d="M113 0v466h-88v91h88v59q0 72 38 109.5t111 37.5h78v-91h-52q-32 0 -48 -17t-16 -54v-44h116v-91h-116v-466h-111zM537 0h-110v557h110v-557zM430 655q-22 20 -22 50t22 50t52 20q31 0 52.5 -20t21.5 -50t-21.5 -50t-52.5 -20q-30 0 -52 20z" />
    <glyph glyph-name="fl" unicode="fl" horiz-adv-x="650" 
d="M113 0v466h-88v91h88v59q0 72 38 109.5t111 37.5h78v-91h-52q-32 0 -48 -17t-16 -54v-44h116v-91h-116v-466h-111zM556 0q-65 0 -98 30t-33 101v632h110v-605q0 -35 11 -50t45 -15h31v-93h-66z" />
    <glyph glyph-name="s_a_u_c_e_l_o_g_o.liga" unicode="saucelogo" horiz-adv-x="910" 
d="M82 0q-9 0 -9 10v743q0 10 9 10h744q10 0 10 -10v-743q0 -10 -10 -10h-744zM249 94q11 11 17 22.5t14 31.5q13 36 33 69t67 82l25 26q4 4 8 4t9 -3q7 -4 17 -6q10 -3 10 -13v-36q0 -43 -5.5 -67t-15.5 -47q-10 -20 -10 -37q0 -14 11 -25t25 -11q15 0 26 11t11 25
q0 17 -10 37q-10 23 -15.5 47t-5.5 67v36q0 10 10 13q13 4 15 6q5 3 8 3q5 0 9 -4l26 -26q48 -48 68 -81.5t33 -69.5q6 -19 12 -30.5t18 -23.5q17 -15 40 -15q26 0 41 15q17 17 17 42t-16 40q-12 12 -23.5 18t-30.5 12q-37 13 -70 32.5t-81 67.5l-26 26q-4 4 -4 9q0 3 3 7
q6 12 7 18q3 11 12 11h36q44 0 68.5 -6t46.5 -16q2 -1 13 -5.5t24 -4.5q14 0 25 11t11 26q0 14 -11 25.5t-25 11.5q-13 0 -24 -4.5t-13 -5.5q-22 -10 -46.5 -16t-68.5 -6h-36q-9 0 -12 11q-4 10 -7 15t-3 8q0 4 4 8l26 26q48 48 82 68.5t69 31.5q4 2 16 6.5t21 10t16 13.5
q17 19 17 41q0 24 -17 41q-16 16 -41 16t-40 -15q-11 -11 -17 -22.5t-14 -32.5q-13 -37 -32.5 -70t-67.5 -81l-25 -24q-3 -4 -9 -4q-4 0 -7 2q-5 3 -17 7q-10 3 -10 13v36q0 43 5.5 67t15.5 47q10 20 10 37q0 14 -11 25t-25 11q-15 0 -26 -11t-11 -25q0 -17 10 -37
q10 -23 15.5 -47t5.5 -67v-36q0 -10 -10 -13q-2 -1 -7.5 -2.5t-9.5 -4.5q-3 -2 -7 -2q-6 0 -10 4l-25 24q-49 49 -69.5 83t-31.5 69q-7 19 -13 31t-17 23q-16 16 -40 16q-22 0 -40 -16q-17 -17 -17 -42t16 -41q11 -11 22.5 -17t30.5 -13q36 -13 69 -33t82 -67l26 -25
q4 -4 4 -8q0 -3 -3 -8q-2 -3 -7 -16q-3 -11 -12 -11h-36q-44 0 -68.5 6t-46.5 16q-2 1 -13 5.5t-24 4.5q-14 0 -25 -11.5t-11 -25.5q0 -15 11 -26t25 -11q13 0 24 4.5t13 5.5q22 10 46.5 16t68.5 6h36q9 0 12 -11q5 -12 8 -17q2 -6 2 -7q0 -5 -4 -9l-26 -27
q-48 -49 -81.5 -68.5t-69.5 -31.5q-20 -7 -31.5 -13t-22.5 -17q-16 -15 -16 -40q0 -24 16 -41q16 -16 42 -16q25 0 40 15zM416 343.5q-16 16.5 -16 38.5t16 38t38 16t38 -16t16 -38q0 -23 -16 -39t-38 -16t-38 16.5zM486 354l-6 6q-10 -13 -26 -13q-14 0 -24 10.5t-10 24.5
t10.5 24t23.5 10q16 0 27 -13l5 6q-11 15 -32 15q-17 0 -30 -12.5t-13 -29.5t13 -30t30 -13q22 0 32 15z" />
    <glyph glyph-name=".notdef" horiz-adv-x="607" 
d="M533 0h-460v557h460v-557zM113 517v-477h380v477h-380z" />
    <glyph glyph-name=".null" 
 />
    <glyph glyph-name="nonmarkingreturn" horiz-adv-x="333" 
 />
    <glyph glyph-name="space" unicode=" " horiz-adv-x="274" 
 />
    <glyph glyph-name="exclam" unicode="!" horiz-adv-x="265" 
d="M86 224l-1 23q-8 136 -8 237v279h110v-279q0 -90 -6 -210l-2 -50h-93zM83 10q-21 21 -21 50q0 28 21 48t50 20q27 0 47.5 -20t20.5 -48q0 -29 -20 -50t-48 -21q-29 0 -50 21z" />
    <glyph glyph-name="quotedbl" unicode="&#x22;" horiz-adv-x="360" 
d="M136 497h-93v266h93v-266zM316 497h-92v266h92v-266z" />
    <glyph glyph-name="numbersign" unicode="#" horiz-adv-x="749" 
d="M213 0h-84l48 227h-129v76h146l34 170h-135v79h152l47 211h85l-47 -215h159l45 215h85l-48 -215h131v-75h-147l-37 -170h138v-76h-154l-48 -227h-84l49 227h-160zM312 473l-34 -170h158l34 170h-158z" />
    <glyph glyph-name="dollar" unicode="$" horiz-adv-x="685" 
d="M569 51.5q-70 -61.5 -198 -63.5v-88h-42v89q-114 8 -195 69.5t-95 180.5h120q15 -69 61 -104t109 -43v254l-6 1q-83 18 -134 36.5t-87 60t-36 114.5q0 68 33 117t92 74.5t135 25.5h3v88h42v-90q97 -11 164 -68.5t83 -159.5h-118q-12 53 -46 83t-83 40v-222
q85 -19 138.5 -39.5t91.5 -65.5t38 -124q0 -104 -70 -165.5zM220.5 496q36.5 -24 108.5 -41v217h-5q-66 0 -103 -27.5t-37 -76.5q0 -48 36.5 -72zM371 90q70 2 110 32t40 88q0 55 -38.5 82t-111.5 44v-246z" />
    <glyph glyph-name="percent" unicode="%" horiz-adv-x="783" 
d="M122.5 445q-35.5 23 -55.5 63.5t-20 90.5q0 49 19.5 89.5t54.5 63.5t81 23q44 0 79 -23t55 -63.5t20 -89.5t-19.5 -89.5t-54 -64t-77.5 -23.5q-47 0 -82.5 23zM209 0h-95l457 763h96zM253 534q19 26 19 65q0 40 -19.5 66t-50.5 26q-32 0 -51 -25.5t-19 -66.5t19.5 -66
t53.5 -25q29 0 48 26zM502.5 11q-35.5 23 -55.5 63t-20 90t19.5 90t54.5 63t80 23q44 0 79.5 -23.5t55.5 -64t20 -89.5t-20 -89t-54.5 -63t-77.5 -23q-46 0 -81.5 23zM632.5 98q19.5 26 19.5 65q0 41 -20 66.5t-51 25.5q-32 0 -50 -25t-18 -66q0 -42 18.5 -67t52.5 -25
q29 0 48.5 26z" />
    <glyph glyph-name="ampersand" unicode="&#x26;" horiz-adv-x="737" 
d="M174 10.5q-57 22.5 -90.5 66t-33.5 104.5q0 74 44 125t132 102q-49 51 -69.5 90.5t-20.5 88.5q0 58 27.5 100.5t75 65t106.5 22.5q87 0 142 -47t55 -127q0 -124 -157 -208l142 -178q23 39 34 77.5t16 86.5h105q-15 -148 -87 -247l106 -132h-138l-51 63q-33 -37 -91.5 -56
t-121.5 -19q-68 0 -125 22.5zM405.5 526q29.5 31 29.5 75q0 33 -25.5 57.5t-64.5 24.5q-42 0 -71 -26.5t-29 -68.5q0 -32 16 -59.5t54 -70.5q61 37 90.5 68zM383.5 97.5q40.5 14.5 71.5 38.5l-163 203q-66 -38 -99.5 -71t-33.5 -80q0 -49 40 -77t102 -28q42 0 82.5 14.5z
" />
    <glyph glyph-name="quotesingle" unicode="'" horiz-adv-x="179" 
d="M136 497h-93v266h93v-266z" />
    <glyph glyph-name="parenleft" unicode="(" horiz-adv-x="298" 
d="M171 -111q-115 208 -115 491q0 285 115 492h107q-65 -113 -95 -232t-30 -260q0 -140 30.5 -259.5t94.5 -231.5h-107z" />
    <glyph glyph-name="parenright" unicode=")" horiz-adv-x="298" 
d="M20 -111q64 112 94.5 231.5t30.5 259.5q0 141 -30 260t-95 232h107q115 -207 115 -492q0 -283 -115 -491h-107z" />
    <glyph glyph-name="asterisk" unicode="*" horiz-adv-x="420" 
d="M72 486q25 28 48.5 49.5t61.5 48.5l-4 13q-32 -2 -44 -2q-42 0 -100 10l30 86q36 -16 60.5 -30t57.5 -41l11 8q-13 41 -18.5 69.5t-10.5 65.5h93q-5 -37 -11 -65.5t-20 -69.5l11 -8q34 27 59 41t61 30l29 -87q-56 -8 -98 -8q-30 0 -47 1l-4 -13q39 -26 62 -47.5t49 -50.5
l-77 -53q-36 78 -55 137h-14q-20 -64 -55 -137z" />
    <glyph glyph-name="plus" unicode="+" horiz-adv-x="632" 
d="M359 59h-87v236h-235v85h235v236h87v-236h235v-85h-235v-236z" />
    <glyph glyph-name="comma" unicode="," horiz-adv-x="272" 
d="M56 -113q47 4 74 29.5t29 66.5q0 19 -1 29q-15 -22 -47 -22q-24 0 -42 18.5t-18 48.5q0 32 20.5 51.5t54.5 19.5q45 0 70 -34t25 -90q0 -67 -40.5 -117.5t-124.5 -57.5v58z" />
    <glyph glyph-name="hyphen" unicode="-" horiz-adv-x="355" 
d="M330 282h-305v95h305v-95z" />
    <glyph glyph-name="period" unicode="." horiz-adv-x="241" 
d="M72 10q-21 21 -21 50q0 28 21 48t50 20q28 0 48 -20t20 -48q0 -29 -20 -50t-48 -21q-29 0 -50 21z" />
    <glyph glyph-name="slash" unicode="/" horiz-adv-x="464" 
d="M439 763l-349 -874h-100l349 874h100z" />
    <glyph glyph-name="zero" unicode="0" horiz-adv-x="665" 
d="M133.5 86.5q-71.5 97.5 -71.5 296.5q0 198 70.5 295t198.5 97q130 0 201 -98t71 -298q0 -197 -70 -293.5t-198 -96.5q-130 0 -201.5 97.5zM484 380q0 289 -155 289q-149 0 -149 -287q0 -150 39.5 -218.5t113.5 -68.5q151 0 151 285z" />
    <glyph glyph-name="one" unicode="1" horiz-adv-x="442" 
d="M251 617q-38 -49 -93.5 -82.5t-120.5 -46.5v111q72 15 129.5 61.5t87.5 102.5h115v-763h-118v617z" />
    <glyph glyph-name="two" unicode="2" horiz-adv-x="647" 
d="M56 0v96l241 206q77 65 114 120.5t37 117.5q0 61 -32.5 96t-95.5 35q-141 0 -150 -169h-113q5 128 74 199.5t189 71.5q71 0 125.5 -27.5t85 -78t30.5 -118.5q0 -90 -52 -167.5t-138 -151.5l-144 -124h369v-106h-540z" />
    <glyph glyph-name="three" unicode="3" horiz-adv-x="661" 
d="M190 19q-63 30 -99 85.5t-40 130.5h118q14 -143 170 -143q68 0 107 35.5t39 97.5q0 66 -47 96.5t-126 30.5h-47v100h43q57 0 95.5 29.5t38.5 84.5q0 48 -31.5 76.5t-85.5 28.5q-58 0 -94 -32.5t-43 -97.5h-112q3 68 36 121t88.5 82.5t122.5 29.5q70 0 123.5 -26
t82.5 -72.5t29 -104.5q0 -59 -34 -103t-83 -55q71 -10 117 -61.5t46 -128.5q0 -68 -34.5 -121.5t-95 -83t-137.5 -29.5q-84 0 -147 30z" />
    <glyph glyph-name="four" unicode="4" horiz-adv-x="651" 
d="M502 0h-118v177h-342v115l343 471h117v-480h107v-106h-107v-177zM384 608l-230 -325h230v325z" />
    <glyph glyph-name="five" unicode="5" horiz-adv-x="653" 
d="M196 18q-57 29 -92.5 81.5t-42.5 121.5h118q11 -61 51.5 -93.5t99.5 -32.5q69 0 108.5 46.5t39.5 120.5q0 71 -41 114t-108 43q-46 0 -82 -22.5t-56 -63.5h-121l79 430h412v-106h-326l-35 -198q30 29 70.5 45.5t83.5 16.5q70 0 125 -32.5t86 -91t31 -134.5
q0 -79 -34.5 -141.5t-96 -97.5t-140.5 -35q-72 0 -129 29z" />
    <glyph glyph-name="six" unicode="6" horiz-adv-x="659" 
d="M132.5 86q-71.5 98 -71.5 271q0 193 72 305.5t213 112.5q105 0 170.5 -58t81.5 -159h-109q-28 114 -143 114q-88 0 -130.5 -69t-42.5 -196q60 94 182 94q72 0 127 -31t85 -88t30 -131q0 -75 -32 -135t-90 -94t-132 -34q-139 0 -210.5 98zM442 135.5q37 44.5 37 112.5
q0 70 -36.5 112.5t-100.5 42.5q-67 0 -110 -43.5t-43 -111.5q0 -69 42.5 -113t110.5 -44q63 0 100 44.5z" />
    <glyph glyph-name="seven" unicode="7" horiz-adv-x="602" 
d="M232 0h-129l337 657h-406v106h529v-102z" />
    <glyph glyph-name="eight" unicode="8" horiz-adv-x="660" 
d="M187.5 18.5q-61.5 30.5 -95.5 84.5t-34 123q0 66 36 118t106 74q-54 17 -81.5 59t-27.5 92q0 60 30.5 107t85 73t123.5 26t123.5 -26t85 -73t30.5 -107q0 -50 -28 -92t-81 -59q70 -22 106 -74t36 -118q0 -69 -34 -123t-95.5 -84.5t-142.5 -30.5t-142.5 30.5zM421.5 484.5
q32.5 29.5 32.5 79.5q0 49 -34 80t-90 31q-57 0 -90.5 -31t-33.5 -80q0 -50 32.5 -79.5t91.5 -29.5t91.5 29.5zM441 128.5q42 37.5 42 102.5q0 63 -41 101.5t-112 38.5t-112.5 -39t-41.5 -101q0 -65 42.5 -102.5t111.5 -37.5t111 37.5z" />
    <glyph glyph-name="nine" unicode="9" horiz-adv-x="659" 
d="M526.5 677q71.5 -98 71.5 -271q0 -193 -72 -305.5t-213 -112.5q-105 0 -170.5 58t-81.5 159h109q14 -56 50 -85t93 -29q88 0 130.5 69t42.5 196q-60 -94 -182 -94q-72 0 -127 31t-85 88t-30 131q0 75 32 135t90 94t132 34q139 0 210.5 -98zM217 627.5
q-37 -44.5 -37 -112.5q0 -70 36.5 -112.5t100.5 -42.5q68 0 111 43.5t43 111.5q0 69 -43 113t-111 44q-63 0 -100 -44.5z" />
    <glyph glyph-name="colon" unicode=":" horiz-adv-x="222" 
d="M61.5 408q-20.5 21 -20.5 50q0 27 20.5 48t49.5 21q28 0 48.5 -21t20.5 -48q0 -29 -20.5 -50t-48.5 -21q-29 0 -49.5 21zM61.5 10q-20.5 21 -20.5 50q0 28 20.5 48t49.5 20q28 0 48.5 -20t20.5 -48q0 -29 -20.5 -50t-48.5 -21q-29 0 -49.5 21z" />
    <glyph glyph-name="semicolon" unicode=";" horiz-adv-x="272" 
d="M72 408q-21 21 -21 50q0 27 21 48t49 21t48.5 -20.5t20.5 -48.5q0 -29 -20.5 -50t-48.5 -21t-49 21zM56 -113q47 4 74 29.5t29 66.5q0 19 -1 29q-15 -22 -47 -22q-24 0 -42 18.5t-18 48.5q0 32 20.5 51.5t54.5 19.5q45 0 70 -34t25 -90q0 -67 -40.5 -117.5t-124.5 -57.5
v58z" />
    <glyph glyph-name="less" unicode="&#x3c;" horiz-adv-x="561" 
d="M514 213v-99l-472 173v112l472 174v-100l-363 -130z" />
    <glyph glyph-name="equal" unicode="=" horiz-adv-x="514" 
d="M477 415h-441v97h441v-97zM477 182h-441v98h441v-98z" />
    <glyph glyph-name="greater" unicode="&#x3e;" horiz-adv-x="561" 
d="M519 287l-472 -173v99l363 130l-363 130v100l472 -174v-112z" />
    <glyph glyph-name="question" unicode="?" horiz-adv-x="551" 
d="M221 258q0 56 15 93.5t36.5 58.5t55.5 46q39 28 57.5 51.5t18.5 65.5q0 53 -34.5 81.5t-92.5 28.5q-63 0 -99.5 -36t-41.5 -101h-100q6 106 71.5 167t167.5 61q101 0 166 -53.5t65 -153.5q0 -43 -12.5 -73t-30.5 -48.5t-49 -41.5q-29 -22 -46 -39t-29.5 -43.5
t-14.5 -64.5l-3 -35h-100v36zM221 10q-21 21 -21 50q0 28 20.5 48t49.5 20t49 -20t20 -48q0 -30 -20 -50.5t-49 -20.5q-28 0 -49 21z" />
    <glyph glyph-name="at" unicode="@" horiz-adv-x="1041" 
d="M273 -128.5q-107 59.5 -167.5 166t-60.5 242.5q0 139 61 251.5t171 177t249 64.5q134 0 241.5 -60.5t168 -168.5t60.5 -245q0 -95 -30.5 -172.5t-87.5 -122t-133 -44.5q-63 0 -96.5 40t-40.5 125q-59 -104 -166 -104q-80 0 -130 56t-50 156q0 85 36 164t100 128t143 49
q46 0 77.5 -20t55.5 -68l12 61h81l-17 -80q-31 -153 -44.5 -227.5t-13.5 -117.5q0 -83 64 -83q46 0 82 34t55.5 93t19.5 131q0 116 -49 205.5t-136.5 139t-199.5 49.5q-117 0 -208.5 -53.5t-142 -147t-50.5 -210.5q0 -115 49 -202t137 -135t203 -48q72 0 134 22v-86
q-57 -19 -135 -19q-135 0 -242 59.5zM547.5 143q45.5 39 70.5 100.5t25 125.5q0 122 -100 122q-58 0 -103.5 -37.5t-70.5 -97.5t-25 -124q0 -66 27 -97t74 -31q57 0 102.5 39z" />
    <glyph glyph-name="A" unicode="A" horiz-adv-x="702" 
d="M133 0h-123l275 763h131l275 -763h-122l-59 172h-318zM351 638l-123 -362h246z" />
    <glyph glyph-name="B" unicode="B" horiz-adv-x="694" 
d="M73 0v763h295q132 0 193 -59q49 -48 49 -132q0 -68 -32.5 -115t-89.5 -57q77 -8 118.5 -56t41.5 -126q0 -50 -16.5 -89t-45.5 -65q-40 -36 -96.5 -50t-109.5 -14h-307zM363 439q61 0 94.5 28.5t33.5 81.5q0 48 -29 75q-36 33 -120 33h-151v-218h172zM366 106
q40 0 73.5 6.5t57.5 28.5q33 30 33 86q0 71 -43 92t-103 21h-193v-234h175z" />
    <glyph glyph-name="C" unicode="C" horiz-adv-x="757" 
d="M205 41.5q-81 53.5 -120.5 143t-39.5 197.5t39.5 197.5t120.5 142.5t200 53q132 0 215 -64.5t100 -172.5h-129q-12 62 -62 96.5t-126 34.5q-114 0 -175.5 -78.5t-61.5 -208.5q0 -131 61.5 -210t175.5 -79q77 0 126.5 37.5t61.5 108.5h129q-18 -117 -100 -184t-215 -67
q-119 0 -200 53.5z" />
    <glyph glyph-name="D" unicode="D" horiz-adv-x="730" 
d="M73 0v763h217q191 0 293 -99.5t102 -283.5q0 -183 -102.5 -281.5t-293.5 -98.5h-216zM288 106q130 0 204.5 61.5t74.5 212.5q0 144 -74 210.5t-205 66.5h-97v-551h97z" />
    <glyph glyph-name="E" unicode="E" horiz-adv-x="618" 
d="M575 0h-502v763h502v-106h-384v-222h341v-105h-341v-224h384v-106z" />
    <glyph glyph-name="F" unicode="F" horiz-adv-x="603" 
d="M191 0h-118v763h502v-106h-384v-222h341v-105h-341v-330z" />
    <glyph glyph-name="G" unicode="G" horiz-adv-x="813" 
d="M206.5 42q-82.5 54 -122.5 143.5t-40 195.5q0 107 40 196.5t122.5 143.5t203.5 54q134 0 219.5 -63.5t114.5 -172.5h-131q-22 62 -74.5 96t-129.5 34q-80 0 -135 -38.5t-82 -103t-27 -144.5q0 -82 28.5 -147.5t85 -104t137.5 -38.5q102 0 161.5 56.5t60.5 157.5h-176v100
h292v-407h-107v98q-38 -56 -101.5 -83t-134.5 -27q-122 0 -204.5 54z" />
    <glyph glyph-name="H" unicode="H" horiz-adv-x="739" 
d="M191 0h-118v763h118v-327h355v327h118v-763h-118v330h-355v-330z" />
    <glyph glyph-name="I" unicode="I" horiz-adv-x="266" 
d="M191 0h-118v763h118v-763z" />
    <glyph glyph-name="J" unicode="J" horiz-adv-x="389" 
d="M14 0v106h96q45 0 67.5 21.5t22.5 68.5v567h119v-569q0 -69 -19.5 -111t-65 -62.5t-124.5 -20.5h-96z" />
    <glyph glyph-name="K" unicode="K" horiz-adv-x="651" 
d="M191 0h-118v763h118v-344l293 344h148l-322 -367l335 -396h-150l-304 362v-362z" />
    <glyph glyph-name="L" unicode="L" horiz-adv-x="537" 
d="M524 0h-451v763h118v-657h333v-106z" />
    <glyph glyph-name="M" unicode="M" horiz-adv-x="914" 
d="M191 0h-118v763h202l181 -619l182 619h202v-763h-118v682l-207 -682h-116l-208 677v-677z" />
    <glyph glyph-name="N" unicode="N" horiz-adv-x="741" 
d="M191 0h-118v763h149l328 -609v609h117v-763h-148l-328 608v-608z" />
    <glyph glyph-name="O" unicode="O" horiz-adv-x="815" 
d="M206.5 41.5q-81.5 53.5 -121.5 143t-40 197.5q0 109 40 198t121.5 142t200.5 53t200.5 -53t122 -142t40.5 -198q0 -108 -40.5 -197.5t-122 -143t-200.5 -53.5t-200.5 53.5zM537.5 130.5q54.5 36.5 83 101.5t28.5 150t-28.5 149.5t-83 101t-130.5 36.5t-130.5 -36.5
t-82.5 -101t-28 -149.5t28 -150t82.5 -101.5t130.5 -36.5t130.5 36.5z" />
    <glyph glyph-name="P" unicode="P" horiz-adv-x="653" 
d="M73 0v763h307q112 0 177 -55.5t65 -166.5q0 -106 -66 -166.5t-176 -60.5h-189v-314h-118zM364 417q68 0 104.5 31t36.5 90q0 57 -36.5 88t-104.5 31h-173v-240h173z" />
    <glyph glyph-name="Q" unicode="Q" horiz-adv-x="817" 
d="M739.5 208q-30.5 -81 -89.5 -134l102 -161h-131l-67 101q-64 -26 -147 -26q-119 0 -200.5 53.5t-121.5 143t-40 197.5q0 109 40 198t121.5 142t200.5 53t200.5 -53t122 -142t40.5 -198q0 -93 -30.5 -174zM194 232q28 -65 82.5 -101.5t130.5 -36.5t130.5 36.5t83 101.5
t28.5 150t-28.5 149.5t-83 101t-130.5 36.5t-130.5 -36.5t-82.5 -101t-28 -149.5t28 -150z" />
    <glyph glyph-name="R" unicode="R" horiz-adv-x="674" 
d="M636 0h-128l-128 314h-189v-314h-118v763h307q112 0 177 -55.5t65 -166.5q0 -75 -34 -128t-94 -78zM191 417h173q68 0 104.5 31t36.5 90q0 57 -36.5 88t-104.5 31h-173v-240z" />
    <glyph glyph-name="S" unicode="S" horiz-adv-x="685" 
d="M214.5 13.5q-69.5 25.5 -117.5 82t-58 143.5h120q17 -80 74 -114.5t132 -34.5q73 0 114.5 30.5t41.5 89.5q0 44 -26 70.5t-65 39t-107 27.5q-83 18 -134 36.5t-87 60t-36 114.5q0 68 33 117t92 74.5t135 25.5q112 0 193 -57.5t99 -172.5h-118q-15 65 -62.5 96t-113.5 31
t-103 -27.5t-37 -76.5q0 -38 24.5 -61t60.5 -35t100 -26q87 -19 140.5 -39t91.5 -65.5t38 -124.5q0 -106 -72.5 -167.5t-203.5 -61.5q-79 0 -148.5 25.5z" />
    <glyph glyph-name="T" unicode="T" horiz-adv-x="633" 
d="M375 0h-118v657h-245v106h609v-106h-246v-657z" />
    <glyph glyph-name="U" unicode="U" horiz-adv-x="724" 
d="M139 62.5q-73 74.5 -73 207.5v493h118v-493q0 -177 178 -177q92 0 134.5 46.5t42.5 130.5v493h118v-493q0 -132 -73 -207t-222 -75q-150 0 -223 74.5z" />
    <glyph glyph-name="V" unicode="V" horiz-adv-x="698" 
d="M415 0h-131l-275 763h122l218 -637l219 637h122z" />
    <glyph glyph-name="W" unicode="W" horiz-adv-x="1093" 
d="M390 0h-160l-213 763h124l173 -632l165 632h135l166 -633l172 633h124l-213 -763h-160l-156 602z" />
    <glyph glyph-name="X" unicode="X" horiz-adv-x="704" 
d="M152 0h-140l259 382l-256 381h141l196 -299l196 299h141l-257 -381l259 -382h-140l-199 293z" />
    <glyph glyph-name="Y" unicode="Y" horiz-adv-x="687" 
d="M406 0h-123v295l-283 468h138l205 -352l207 352h136l-280 -468v-295z" />
    <glyph glyph-name="Z" unicode="Z" horiz-adv-x="631" 
d="M599 0h-571v83l423 574h-400v106h548v-86l-419 -571h419v-106z" />
    <glyph glyph-name="bracketleft" unicode="[" horiz-adv-x="342" 
d="M321 -110h-228v982h228v-83h-130v-816h130v-83z" />
    <glyph glyph-name="backslash" unicode="\" horiz-adv-x="464" 
d="M474 -111h-100l-349 874h100z" />
    <glyph glyph-name="bracketright" unicode="]" horiz-adv-x="342" 
d="M249 872v-982h-228v83h130v816h-130v83h228z" />
    <glyph glyph-name="asciicircum" unicode="^" horiz-adv-x="547" 
d="M143 291h-99l174 472h111l174 -472h-100l-130 364z" />
    <glyph glyph-name="underscore" unicode="_" horiz-adv-x="421" 
d="M434 -81h-448v81h448v-81z" />
    <glyph glyph-name="grave" unicode="`" horiz-adv-x="259" 
d="M132 763l116 -150h-91l-147 150h122z" />
    <glyph glyph-name="a" unicode="a" horiz-adv-x="584" 
d="M93 32.5q-50 43.5 -50 118.5q0 77 60 121q45 33 129 49l182 35q-1 58 -31 89q-33 33 -88 33q-45 0 -78.5 -25.5t-42.5 -68.5h-109q14 88 79 136t152 48q49 0 92.5 -14.5t73.5 -42.5q40 -37 50.5 -87t10.5 -115v-309h-110v82q-23 -39 -58 -61q-50 -32 -130 -32
q-82 0 -132 43.5zM327 98q49 25 68.5 66.5t19.5 107.5l-157 -31q-58 -12 -84 -36q-21 -21 -21 -51q0 -35 25.5 -54.5t68.5 -19.5q44 0 80 18z" />
    <glyph glyph-name="b" unicode="b" horiz-adv-x="639" 
d="M253 9q-39 20 -76 70v-79h-110v763h110v-284q37 50 76 69.5t94 19.5q73 0 129 -36.5t86.5 -102.5t30.5 -151q0 -84 -30.5 -150t-86.5 -102.5t-129 -36.5q-55 0 -94 20zM440.5 139q42.5 54 42.5 139t-42.5 139.5t-113.5 54.5q-46 0 -82.5 -24.5t-57 -69t-20.5 -100.5
t20.5 -100t57 -68.5t82.5 -24.5q71 0 113.5 54z" />
    <glyph glyph-name="c" unicode="c" horiz-adv-x="611" 
d="M175.5 26q-62.5 37 -97.5 103.5t-35 151.5q0 83 35 148t97.5 102t143.5 37q97 0 164.5 -50t87.5 -134h-118q-15 43 -50 67t-84 24q-48 0 -85 -24.5t-58 -68.5t-21 -101q0 -59 21 -104t58 -70t85 -25q52 0 88.5 27.5t48.5 73.5h119q-19 -90 -88.5 -142t-167.5 -52
q-81 0 -143.5 37z" />
    <glyph glyph-name="d" unicode="d" horiz-adv-x="639" 
d="M163 25.5q-56 36.5 -86.5 102.5t-30.5 150q0 85 30.5 151t86.5 102.5t129 36.5q55 0 94 -19.5t76 -69.5v284h110v-763h-110v79q-37 -50 -76 -70t-94 -20q-73 0 -129 36.5zM394.5 109.5q36.5 24.5 57 68.5t20.5 100t-20.5 100.5t-57 69t-82.5 24.5q-71 0 -113.5 -54.5
t-42.5 -139.5t42.5 -139t113.5 -54q46 0 82.5 24.5z" />
    <glyph glyph-name="e" unicode="e" horiz-adv-x="635" 
d="M176 26.5q-63 37.5 -98 103t-35 146.5q0 76 31.5 143t93.5 108t149 41q74 0 136.5 -32t100.5 -95.5t38 -154.5v-30h-437q3 -33 16 -60q20 -51 60 -81t91 -30q53 0 91 27.5t55 70.5h115q-28 -86 -94.5 -140t-168.5 -54q-81 0 -144 37.5zM478 345q-4 31 -17 53
q-20 38 -57.5 58.5t-82.5 20.5q-47 0 -83 -20.5t-57 -58.5q-12 -20 -19 -53h316z" />
    <glyph glyph-name="f" unicode="f" horiz-adv-x="361" 
d="M113 0v466h-88v91h88v59q0 72 38 109.5t111 37.5h78v-91h-52q-32 0 -48 -17t-16 -54v-44h116v-91h-116v-466h-111z" />
    <glyph glyph-name="g" unicode="g" horiz-adv-x="640" 
d="M149 -175q-70 41 -86 137h112q13 -45 47.5 -66.5t93.5 -21.5q75 0 111 34t36 96v81q-37 -50 -76.5 -70t-93.5 -20q-73 0 -129 36.5t-86.5 101.5t-30.5 147q0 84 30.5 149.5t86.5 102t129 36.5q55 0 94 -20t76 -69v78h110v-529q0 -132 -68 -188t-188 -56q-98 0 -168 41z
M395.5 115.5q36.5 24.5 57 68t20.5 98.5q0 54 -20.5 97.5t-57 68t-82.5 24.5q-70 0 -113 -54t-43 -136q0 -83 42.5 -137t113.5 -54q46 0 82.5 24.5z" />
    <glyph glyph-name="h" unicode="h" horiz-adv-x="591" 
d="M67 0v763h110v-284q36 49 73.5 69t84.5 20q123 0 169 -90q17 -33 21 -67.5t4 -82.5v-328h-110v329q0 44 -7 72.5t-23 45.5q-25 28 -78 28q-60 0 -93 -38q-22 -24 -31.5 -65t-9.5 -111v-261h-110z" />
    <glyph glyph-name="i" unicode="i" horiz-adv-x="242" 
d="M176 0h-110v557h110v-557zM69 655q-22 20 -22 50t22 50t52 20q31 0 52.5 -20t21.5 -50t-21.5 -50t-52.5 -20q-30 0 -52 20z" />
    <glyph glyph-name="j" unicode="j" horiz-adv-x="243" 
d="M-50 -206v96h52q31 0 48 14.5t17 54.5v598h110v-623q0 -69 -35.5 -104.5t-103.5 -35.5h-88zM69 655q-22 20 -22 50t22 50t52 20q31 0 52.5 -20t21.5 -50t-21.5 -50t-52.5 -20q-30 0 -52 20z" />
    <glyph glyph-name="k" unicode="k" horiz-adv-x="575" 
d="M177 0h-110v763h110v-420l224 214h145l-260 -243l281 -314h-141l-249 284v-284z" />
    <glyph glyph-name="l" unicode="l" horiz-adv-x="289" 
d="M195 0q-65 0 -98 30t-33 101v632h110v-605q0 -35 11 -50t45 -15h31v-93h-66z" />
    <glyph glyph-name="m" unicode="m" horiz-adv-x="901" 
d="M66 0v557h110v-78q36 48 74.5 68.5t83.5 20.5q57 0 97.5 -24.5t53.5 -71.5q51 96 169 96q93 0 139 -53t46 -151v-364h-110v346q0 64 -26 96.5t-74 32.5q-49 0 -79 -32q-24 -26 -33.5 -66.5t-9.5 -103.5v-273h-109v346q0 62 -27 95.5t-75 33.5q-24 0 -44 -9t-34 -26
q-22 -24 -32 -63t-10 -104v-273h-110z" />
    <glyph glyph-name="n" unicode="n" horiz-adv-x="590" 
d="M66 0v557h110v-78q37 49 74 69t84 20q125 0 169 -90q17 -33 21 -67.5t4 -82.5v-328h-110v329q0 85 -29 118q-27 28 -78 28q-61 0 -94 -38q-22 -24 -31.5 -65t-9.5 -111v-261h-110z" />
    <glyph glyph-name="o" unicode="o" horiz-adv-x="645" 
d="M177.5 26q-63.5 37 -99 103.5t-35.5 151.5q0 83 35.5 148t99 102t144.5 37t144.5 -37t99 -102t35.5 -148q0 -84 -35 -150.5t-98.5 -104t-145.5 -37.5q-81 0 -144.5 37zM408 110q38 25 59.5 70t21.5 101q0 54 -21.5 97.5t-59.5 68.5t-86 25t-86 -24.5t-59.5 -68
t-21.5 -98.5q0 -57 21.5 -101.5t59.5 -69.5t86 -25t86 25z" />
    <glyph glyph-name="p" unicode="p" horiz-adv-x="639" 
d="M476 531.5q56 -36.5 86.5 -102.5t30.5 -150q0 -85 -30.5 -151t-86.5 -102.5t-129 -36.5q-55 0 -94 19.5t-76 69.5v-284h-110v763h110v-78q37 49 76 69t94 20q73 0 129 -36.5zM244.5 447.5q-36.5 -24.5 -57 -68.5t-20.5 -100t20.5 -100.5t57 -69t82.5 -24.5
q71 0 113.5 54.5t42.5 139.5t-42.5 139t-113.5 54q-46 0 -82.5 -24.5z" />
    <glyph glyph-name="q" unicode="q" horiz-adv-x="638" 
d="M600 -206q-71 0 -104.5 30.5t-33.5 95.5v159q-38 -50 -77 -70t-93 -20q-73 0 -129 36.5t-87 102.5t-31 151q0 84 31 150t87 102.5t129 36.5q54 0 93.5 -20t76.5 -69v78h110v-624q0 -24 12.5 -33.5t37.5 -9.5h46v-96h-68zM394.5 109.5q36.5 24.5 57 69t20.5 100.5
t-20.5 100t-57.5 68.5t-83 24.5q-70 0 -112.5 -54t-42.5 -139t42.5 -139.5t112.5 -54.5q47 0 83.5 24.5z" />
    <glyph glyph-name="r" unicode="r" horiz-adv-x="377" 
d="M66 0v557h110v-71q34 44 75 63t95 19h11v-108h-30q-67 0 -104 -37q-47 -45 -47 -148v-275h-110z" />
    <glyph glyph-name="s" unicode="s" horiz-adv-x="566" 
d="M123.5 39.5q-70.5 50.5 -84.5 143.5h111q12 -49 49.5 -76t99.5 -27q51 0 82 19.5t31 55.5q0 28 -19 44.5t-48 25.5t-77 19q-66 13 -107 27t-70 46t-29 88q0 79 59 121t150 42q94 0 157 -48.5t78 -134.5h-103q-12 47 -47 70t-85 23q-48 0 -75 -18t-27 -49q0 -25 18 -39.5
t44.5 -22.5t74.5 -17q68 -13 111 -27.5t73.5 -48t30.5 -92.5q0 -80 -59 -127.5t-163 -47.5q-105 0 -175.5 50.5z" />
    <glyph glyph-name="t" unicode="t" horiz-adv-x="372" 
d="M242 0q-65 0 -98 30t-33 101v334h-86v92h86v206h110v-206h116v-92h-116v-305q0 -35 10 -51t46 -16h59v-93h-94z" />
    <glyph glyph-name="u" unicode="u" horiz-adv-x="592" 
d="M88 80q-13 26 -18.5 60t-5.5 89v328h110v-329q0 -85 29 -118q26 -28 78 -28q60 0 93 38q22 24 32 65t10 111v261h110v-557h-110v79q-36 -48 -73.5 -69t-85.5 -21q-122 0 -169 91z" />
    <glyph glyph-name="v" unicode="v" horiz-adv-x="533" 
d="M310 0h-89l-205 557h119l130 -381l133 381h119z" />
    <glyph glyph-name="w" unicode="w" horiz-adv-x="832" 
d="M290 0h-103l-167 557h118l106 -389l123 389h97l123 -389l107 389h118l-170 -557h-103l-123 405z" />
    <glyph glyph-name="x" unicode="x" horiz-adv-x="566" 
d="M144 0h-128l196 280l-196 277h128l138 -202l139 202h129l-199 -277l199 -280h-129l-139 204z" />
    <glyph glyph-name="y" unicode="y" horiz-adv-x="557" 
d="M70 -206v96h57q33 0 48.5 9t28.5 43l22 61l-211 554h120l149 -421l137 421h119l-232 -645q-24 -67 -57 -92.5t-93 -25.5h-88z" />
    <glyph glyph-name="z" unicode="z" horiz-adv-x="544" 
d="M507 0h-474v81l339 384h-321v92h458v-88l-331 -377h329v-92z" />
    <glyph glyph-name="braceleft" unicode="{" horiz-adv-x="322" 
d="M220 -110q-60 0 -91 39.5t-31 109.5v205q0 41 -18 61.5t-51 30.5v90q33 10 51 31t18 62v204q0 70 31 109.5t91 39.5h77v-80h-38q-59 0 -59 -72v-204q0 -106 -81 -135q40 -14 60.5 -46.5t20.5 -88.5v-204q0 -72 59 -72h38v-80h-77z" />
    <glyph glyph-name="bar" unicode="|" horiz-adv-x="332" 
d="M215 -110h-98v982h98v-982z" />
    <glyph glyph-name="braceright" unicode="}" horiz-adv-x="322" 
d="M25 -110v80h38q59 0 59 72v204q0 106 81 135q-81 29 -81 135v204q0 72 -59 72h-38v80h77q60 0 91 -39.5t31 -109.5v-204q0 -41 18 -62t51 -31v-90q-33 -10 -51 -30.5t-18 -61.5v-205q0 -70 -31 -109.5t-91 -39.5h-77z" />
    <glyph glyph-name="asciitilde" unicode="~" horiz-adv-x="527" 
d="M247.5 222q-20.5 13 -43.5 37q-14 15 -23 22t-20 7q-33 0 -38 -75h-74q3 72 34 113.5t82 41.5q30 0 50 -13t42 -36q15 -15 24.5 -22t20.5 -7q14 0 23.5 18.5t10.5 54.5h76q-5 -79 -31 -116.5t-80 -37.5q-33 0 -53.5 13z" />
    <glyph glyph-name="uni00A0" unicode="&#xa0;" horiz-adv-x="240" 
 />
    <glyph glyph-name="exclamdown" unicode="&#xa1;" horiz-adv-x="343" 
d="M229 547q21 -21 21 -50q0 -28 -21 -48t-50 -20q-28 0 -48 20t-20 48q0 29 20 50t48 21q29 0 50 -21zM226 333l1 -23q8 -136 8 -237v-279h-110v279q0 90 6 210l2 50h93z" />
    <glyph glyph-name="cent" unicode="&#xa2;" horiz-adv-x="611" 
d="M575 183q-19 -85 -82 -136.5t-153 -56.5v-90h-42v90q-75 5 -133 43t-90 102t-32 146q0 79 32 142.5t90 101.5t133 42v100h42v-100q89 -5 150.5 -54t80.5 -129h-118q-14 38 -43 61.5t-70 28.5v-391q45 5 75 31.5t41 68.5h119zM194.5 145q39.5 -54 103.5 -62v391
q-64 -8 -103.5 -60.5t-39.5 -132.5q0 -82 39.5 -136z" />
    <glyph glyph-name="sterling" unicode="&#xa3;" horiz-adv-x="625" 
d="M53 113q72 7 109.5 41t37.5 83q0 56 -47 140h-95v71h79q-22 44 -22 104q0 66 30.5 116.5t83.5 78.5t118 28q55 0 104.5 -22t83 -67.5t42.5 -112.5h-106q-10 53 -44.5 79.5t-77.5 26.5q-59 0 -94.5 -38t-35.5 -99q0 -57 16 -94h212v-71h-190q43 -90 43 -146
q0 -38 -19.5 -70t-64.5 -63h355v-98h-518v113z" />
    <glyph glyph-name="currency" unicode="&#xa4;" horiz-adv-x="727" 
d="M150 66l-62 61l69 69q-48 66 -48 146q0 79 47 144l-67 68l60 62l70 -69q62 47 146 47q79 0 144 -45l67 67l64 -62l-69 -68q23 -32 35 -69.5t12 -75.5q0 -81 -47 -146l67 -67l-63 -61l-66 66q-64 -46 -145 -46t-146 46zM427 186.5q31 12.5 54 35.5q49 49 49 118
q0 33 -12.5 64t-36.5 54q-24 24 -55 36.5t-63 12.5q-69 0 -118 -50q-23 -23 -35 -53.5t-12 -62.5q0 -71 48 -119q24 -24 54.5 -36t63.5 -12q32 0 63 12.5z" />
    <glyph glyph-name="yen" unicode="&#xa5;" horiz-adv-x="687" 
d="M550 763h136l-259 -433h130v-64h-151v-50h151v-64h-151v-152h-123v152h-152v64h152v50h-152v64h131l-262 433h138l205 -352z" />
    <glyph glyph-name="brokenbar" unicode="&#xa6;" horiz-adv-x="332" 
d="M215 445h-98v427h98v-427zM215 -110h-98v424h98v-424z" />
    <glyph glyph-name="section" unicode="&#xa7;" horiz-adv-x="709" 
d="M163.5 -182.5q-87.5 54.5 -103.5 167.5h120q18 -62 68 -93t117 -31q69 0 111 29t42 81q0 43 -25.5 68.5t-63 38t-102.5 27.5l-34 8q-96 22 -152.5 62t-56.5 126q0 42 19.5 76t64.5 63q-44 23 -64 56.5t-20 78.5q0 62 35 107t95 69t134 24q104 0 176.5 -52.5t93.5 -149.5
h-114q-17 50 -58.5 76t-100.5 26q-63 0 -100 -26t-37 -70q0 -37 25.5 -59t61 -33t100.5 -25q73 -15 124 -35.5t86 -63t35 -113.5q0 -42 -16 -77t-58 -62q41 -24 57.5 -57t16.5 -77q0 -99 -71.5 -156.5t-199.5 -57.5q-118 0 -205.5 54.5zM518 245q0 42 -25.5 67t-60 36.5
t-99.5 26.5l-45 12q-35 -7 -57.5 -28.5t-22.5 -52.5q0 -35 21 -56t54.5 -32.5t92.5 -24.5q54 -10 100 -25q42 29 42 77z" />
    <glyph glyph-name="dieresis" unicode="&#xa8;" horiz-adv-x="375" 
d="M32 655q-22 20 -22 50t22 50t52 20q31 0 52.5 -20t21.5 -50t-21.5 -50t-52.5 -20q-30 0 -52 20zM237.5 655q-21.5 20 -21.5 50t21.5 50t52.5 20t52.5 -20t21.5 -50t-21.5 -50t-52.5 -20t-52.5 20z" />
    <glyph glyph-name="copyright" unicode="&#xa9;" horiz-adv-x="889" 
d="M248.5 44q-89.5 52 -142 141.5t-52.5 195.5q0 107 52.5 196.5t142 142t195.5 52.5t195.5 -52t142 -142t52.5 -197q0 -106 -52.5 -195.5t-142 -141.5t-195.5 -52t-195.5 52zM599.5 114.5q70.5 41.5 112 112t41.5 154.5q0 85 -41 156t-112 112.5t-156 41.5t-155.5 -41.5
t-112 -112.5t-41.5 -156q0 -84 41.5 -154.5t112.5 -112t155 -41.5q85 0 155.5 41.5zM333.5 189.5q-50.5 29.5 -80 80.5t-29.5 111q0 61 29.5 112t80 80.5t110.5 29.5q46 0 89.5 -19.5t75.5 -54.5l-61 -54q-44 47 -106 47q-38 0 -70 -19t-50.5 -51t-18.5 -71
q0 -38 18.5 -70.5t50.5 -51t70 -18.5q64 0 106 47l61 -54q-31 -35 -74.5 -54.5t-90.5 -19.5q-60 0 -110.5 29.5z" />
    <glyph glyph-name="ordfeminine" unicode="&#xaa;" horiz-adv-x="439" 
d="M78 399q-35 30 -35 83q0 54 42 84q30 23 90 35l127 24q0 41 -21 63q-25 23 -62 23q-32 0 -55 -18t-29 -48h-77q10 62 56 95.5t106 33.5q35 0 65 -10t51 -30q28 -26 35.5 -61t7.5 -80v-217h-77v57q-19 -28 -41 -42q-34 -22 -90 -22q-58 0 -93 30zM242 445q34 17 47.5 46
t14.5 76l-110 -22q-41 -8 -59 -25q-15 -13 -15 -36q0 -24 18 -38t48 -14q31 0 56 13z" />
    <glyph glyph-name="guillemotleft" unicode="&#xab;" horiz-adv-x="573" 
d="M236 182v-95l-224 189l224 189v-94l-113 -96zM503 182v-95l-224 189l224 189v-94l-113 -96z" />
    <glyph glyph-name="uni00AD" unicode="&#xad;" horiz-adv-x="382" 
d="M382 289h-382v81h382v-81z" />
    <glyph glyph-name="registered" unicode="&#xae;" horiz-adv-x="490" 
d="M142.5 396q-46.5 27 -73.5 73.5t-27 102.5t27 102.5t73.5 73.5t102.5 27t102.5 -27t73.5 -73.5t27 -102.5t-27 -102.5t-73.5 -73.5t-102.5 -27t-102.5 27zM330 425q39 23 62 62t23 85t-23 85t-62 62t-85 23q-47 0 -86 -23t-62 -62t-23 -85q0 -47 23 -86t62.5 -61.5
t85.5 -22.5t85 23zM163 453v236h101q35 0 55 -17t20 -52q0 -23 -9.5 -39.5t-28.5 -20.5l44 -107h-47l-38 95h-53v-95h-44zM259 587q17 0 27 8t10 23t-10 24t-27 9h-52v-64h52z" />
    <glyph glyph-name="macron" unicode="&#xaf;" horiz-adv-x="319" 
d="M308 648h-298v53h298v-53z" />
    <glyph glyph-name="degree" unicode="&#xb0;" horiz-adv-x="468" 
d="M156 482.5q-36 21.5 -57.5 57.5t-21.5 78q0 43 21 79t57.5 57t78.5 21t78.5 -21t57.5 -57t21 -79q0 -42 -21.5 -78t-57.5 -57.5t-78 -21.5t-78 21.5zM292 560.5q24 23.5 24 57.5t-24 57.5t-58 23.5t-58 -23.5t-24 -57.5t24 -57.5t58 -23.5t58 23.5z" />
    <glyph glyph-name="plusminus" unicode="&#xb1;" horiz-adv-x="695" 
d="M391 160h-87v156h-235v86h235v155h87v-155h236v-86h-236v-156zM627 0h-558v86h558v-86z" />
    <glyph glyph-name="acute" unicode="&#xb4;" horiz-adv-x="258" 
d="M101 613h-91l116 150h122z" />
    <glyph glyph-name="paragraph" unicode="&#xb6;" horiz-adv-x="635" 
d="M285 335q-65 4 -121 30.5t-89.5 74t-33.5 110.5q0 65 34 113.5t90 74t120 25.5h94v-873h-94v445zM561 -110h-94v873h94v-873z" />
    <glyph glyph-name="periodcentered" unicode="&#xb7;" horiz-adv-x="323" 
d="M106 343.5q-22 22.5 -22 53.5q0 33 22 55.5t54 22.5t55 -22.5t23 -55.5q0 -31 -23 -53.5t-55 -22.5t-54 22.5z" />
    <glyph glyph-name="cedilla" unicode="&#xb8;" horiz-adv-x="241" 
d="M10 -203v44q51 -18 88 -18q30 0 47.5 12t17.5 34q0 34 -35.5 46.5t-103.5 11.5l73 90h68q-18 -20 -30.5 -32.5t-36.5 -29.5l6 -9q19 3 34 3q26 0 42 -8q51 -20 51 -69q0 -43 -35.5 -65.5t-91.5 -22.5q-49 0 -94 13z" />
    <glyph glyph-name="ordmasculine" unicode="&#xba;" horiz-adv-x="478" 
d="M136.5 394.5q-44.5 25.5 -69 72t-24.5 106.5q0 58 25 103.5t69 71.5t101 26t101.5 -26t69.5 -71.5t25 -103.5q0 -59 -25 -105.5t-69.5 -72.5t-101.5 -26t-101.5 25.5zM322 474.5q33 38.5 33 98.5q0 58 -33 96t-84 38t-84 -38t-33 -96q0 -60 33 -98.5t84 -38.5t84 38.5z
" />
    <glyph glyph-name="guillemotright" unicode="&#xbb;" horiz-adv-x="573" 
d="M294 276l-224 -189v95l113 93l-113 96v94zM561 276l-224 -189v95l113 93l-113 96v94z" />
    <glyph glyph-name="questiondown" unicode="&#xbf;" horiz-adv-x="523" 
d="M311.5 547.5q20.5 -20.5 20.5 -49.5q0 -28 -21 -48.5t-49 -20.5t-48.5 20t-20.5 48q0 30 20.5 50.5t48.5 20.5q29 0 49.5 -20.5zM312 300q0 -57 -15 -94.5t-37 -59t-56 -45.5q-39 -28 -57.5 -51.5t-18.5 -65.5q0 -53 34.5 -81.5t92.5 -28.5q63 0 100 36t41 101h100
q-3 -71 -34.5 -122.5t-84.5 -78.5t-120 -27q-65 0 -117.5 23.5t-83 70t-30.5 113.5q0 43 12.5 73t30.5 48.5t49 41.5q29 22 46.5 39t30 43.5t13.5 64.5l3 35h101v-35z" />
    <glyph glyph-name="Agrave" unicode="&#xc0;" horiz-adv-x="702" 
d="M133 0h-123l275 763h131l275 -763h-122l-59 172h-318zM351 638l-123 -362h246zM288 969l116 -150h-91l-147 150h122z" />
    <glyph glyph-name="Aacute" unicode="&#xc1;" horiz-adv-x="702" 
d="M133 0h-123l275 763h131l275 -763h-122l-59 172h-318zM351 638l-123 -362h246zM389 819h-91l116 150h122z" />
    <glyph glyph-name="Acircumflex" unicode="&#xc2;" horiz-adv-x="702" 
d="M133 0h-123l275 763h131l275 -763h-122l-59 172h-318zM351 638l-123 -362h246zM287 824h-108l165 172h14l164 -172h-108l-63 80z" />
    <glyph glyph-name="Atilde" unicode="&#xc3;" horiz-adv-x="702" 
d="M133 0h-123l275 763h131l275 -763h-122l-59 172h-318zM351 638l-123 -362h246zM366.5 828q-20.5 13 -43.5 37q-14 15 -23 22t-20 7q-33 0 -38 -75h-74q3 72 34 113.5t82 41.5q30 0 50 -13t42 -36q15 -15 24.5 -22t20.5 -7q14 0 23.5 18.5t10.5 54.5h76q-5 -79 -31 -116.5
t-80 -37.5q-33 0 -53.5 13z" />
    <glyph glyph-name="Adieresis" unicode="&#xc4;" horiz-adv-x="702" 
d="M133 0h-123l275 763h131l275 -763h-122l-59 172h-318zM351 638l-123 -362h246zM198.5 826.5q-20.5 18.5 -20.5 47.5t20.5 48t49.5 19q28 0 48.5 -19.5t20.5 -47.5t-20.5 -47t-48.5 -19q-29 0 -49.5 18.5zM404.5 826.5q-20.5 18.5 -20.5 47.5t20.5 48t49.5 19
q28 0 48.5 -19.5t20.5 -47.5t-20.5 -47t-48.5 -19q-29 0 -49.5 18.5z" />
    <glyph glyph-name="Aring" unicode="&#xc5;" horiz-adv-x="702" 
d="M272 727q-21 16 -32.5 40.5t-11.5 51.5q0 52 36 87.5t86 35.5q51 0 87.5 -35.5t36.5 -87.5q0 -28 -11.5 -52t-32.5 -40l261 -727h-122l-59 172h-318l-59 -172h-123zM390 780.5q15 15.5 15 40.5q0 23 -14.5 38t-39.5 15q-24 0 -39 -15t-15 -38q0 -24 15.5 -40t38.5 -16
q24 0 39 15.5zM351 639l-123 -363h246z" />
    <glyph glyph-name="AE" unicode="&#xc6;" horiz-adv-x="1059" 
d="M133 0h-123l275 763h488l39 -106h-356l80 -222h356l37 -105h-355l81 -224h356l37 -106h-481l-57 172h-318zM351 639l-123 -363h246z" />
    <glyph glyph-name="Ccedilla" unicode="&#xc7;" horiz-adv-x="757" 
d="M529.5 130.5q49.5 37.5 61.5 108.5h129q-18 -117 -100 -184t-215 -67h-9q-10 -10 -40 -33l6 -9q20 3 34 3q26 0 42 -8q51 -20 51 -69q0 -43 -35.5 -65.5t-91.5 -22.5q-48 0 -94 13v44q51 -18 88 -18q30 0 47.5 12t17.5 34q0 34 -35.5 46.5t-103.5 11.5l54 66
q-96 15 -161.5 71t-97.5 138.5t-32 179.5q0 108 39.5 197.5t120.5 142.5t200 53q132 0 215 -64.5t100 -172.5h-129q-12 62 -62 96.5t-126 34.5q-114 0 -175.5 -78.5t-61.5 -208.5q0 -131 61.5 -210t175.5 -79q77 0 126.5 37.5z" />
    <glyph glyph-name="Egrave" unicode="&#xc8;" horiz-adv-x="618" 
d="M575 0h-502v763h502v-106h-384v-222h341v-105h-341v-224h384v-106zM262 969l116 -150h-91l-147 150h122z" />
    <glyph glyph-name="Eacute" unicode="&#xc9;" horiz-adv-x="618" 
d="M575 0h-502v763h502v-106h-384v-222h341v-105h-341v-224h384v-106zM362 819h-91l116 150h122z" />
    <glyph glyph-name="Ecircumflex" unicode="&#xca;" horiz-adv-x="618" 
d="M575 0h-502v763h502v-106h-384v-222h341v-105h-341v-224h384v-106zM261 824h-108l165 172h14l164 -172h-108l-63 80z" />
    <glyph glyph-name="Edieresis" unicode="&#xcb;" horiz-adv-x="618" 
d="M575 0h-502v763h502v-106h-384v-222h341v-105h-341v-224h384v-106zM172.5 826.5q-20.5 18.5 -20.5 47.5t20.5 48t49.5 19q28 0 48.5 -19.5t20.5 -47.5t-20.5 -47t-48.5 -19q-29 0 -49.5 18.5zM378.5 826.5q-20.5 18.5 -20.5 47.5t20.5 48t49.5 19q28 0 48.5 -19.5
t20.5 -47.5t-20.5 -47t-48.5 -19q-29 0 -49.5 18.5z" />
    <glyph glyph-name="Igrave" unicode="&#xcc;" horiz-adv-x="266" 
d="M191 0h-118v763h118v-763zM70 969l116 -150h-91l-147 150h122z" />
    <glyph glyph-name="Iacute" unicode="&#xcd;" horiz-adv-x="266" 
d="M191 0h-118v763h118v-763zM170 819h-91l116 150h122z" />
    <glyph glyph-name="Icircumflex" unicode="&#xce;" horiz-adv-x="266" 
d="M191 0h-118v763h118v-763zM69 824h-108l165 172h14l164 -172h-108l-63 80z" />
    <glyph glyph-name="Idieresis" unicode="&#xcf;" horiz-adv-x="266" 
d="M191 0h-118v763h118v-763zM-20.5 826.5q-20.5 18.5 -20.5 47.5t20.5 48t49.5 19q28 0 48.5 -19.5t20.5 -47.5t-20.5 -47t-48.5 -19q-29 0 -49.5 18.5zM185.5 826.5q-20.5 18.5 -20.5 47.5t20.5 48t49.5 19q28 0 48.5 -19.5t20.5 -47.5t-20.5 -47t-48.5 -19
q-29 0 -49.5 18.5z" />
    <glyph glyph-name="Eth" unicode="&#xd0;" horiz-adv-x="730" 
d="M290 763q191 0 293 -99.5t102 -283.5q0 -183 -102.5 -281.5t-293.5 -98.5h-216v339h-68v86h68v338h217zM288 106q130 0 204.5 61.5t74.5 212.5q0 144 -74 210.5t-205 66.5h-97v-232h227v-86h-227v-233h97z" />
    <glyph glyph-name="Ntilde" unicode="&#xd1;" horiz-adv-x="741" 
d="M191 0h-118v763h149l328 -609v609h117v-763h-148l-328 608v-608zM385.5 828q-20.5 13 -43.5 37q-14 15 -23 22t-20 7q-33 0 -38 -75h-74q3 72 34 113.5t82 41.5q30 0 50 -13t42 -36q15 -15 24.5 -22t20.5 -7q14 0 23.5 18.5t10.5 54.5h76q-5 -79 -31 -116.5t-80 -37.5
q-33 0 -53.5 13z" />
    <glyph glyph-name="Ograve" unicode="&#xd2;" horiz-adv-x="815" 
d="M206.5 41.5q-81.5 53.5 -121.5 143t-40 197.5q0 109 40 198t121.5 142t200.5 53t200.5 -53t122 -142t40.5 -198q0 -108 -40.5 -197.5t-122 -143t-200.5 -53.5t-200.5 53.5zM537.5 130.5q54.5 36.5 83 101.5t28.5 150t-28.5 149.5t-83 101t-130.5 36.5t-130.5 -36.5
t-82.5 -101t-28 -149.5t28 -150t82.5 -101.5t130.5 -36.5t130.5 36.5zM344 969l116 -150h-91l-147 150h122z" />
    <glyph glyph-name="Oacute" unicode="&#xd3;" horiz-adv-x="815" 
d="M206.5 41.5q-81.5 53.5 -121.5 143t-40 197.5q0 109 40 198t121.5 142t200.5 53t200.5 -53t122 -142t40.5 -198q0 -108 -40.5 -197.5t-122 -143t-200.5 -53.5t-200.5 53.5zM537.5 130.5q54.5 36.5 83 101.5t28.5 150t-28.5 149.5t-83 101t-130.5 36.5t-130.5 -36.5
t-82.5 -101t-28 -149.5t28 -150t82.5 -101.5t130.5 -36.5t130.5 36.5zM445 819h-91l116 150h122z" />
    <glyph glyph-name="Ocircumflex" unicode="&#xd4;" horiz-adv-x="815" 
d="M206.5 41.5q-81.5 53.5 -121.5 143t-40 197.5q0 109 40 198t121.5 142t200.5 53t200.5 -53t122 -142t40.5 -198q0 -108 -40.5 -197.5t-122 -143t-200.5 -53.5t-200.5 53.5zM537.5 130.5q54.5 36.5 83 101.5t28.5 150t-28.5 149.5t-83 101t-130.5 36.5t-130.5 -36.5
t-82.5 -101t-28 -149.5t28 -150t82.5 -101.5t130.5 -36.5t130.5 36.5zM344 824h-108l165 172h14l164 -172h-108l-63 80z" />
    <glyph glyph-name="Otilde" unicode="&#xd5;" horiz-adv-x="815" 
d="M206.5 41.5q-81.5 53.5 -121.5 143t-40 197.5q0 109 40 198t121.5 142t200.5 53t200.5 -53t122 -142t40.5 -198q0 -108 -40.5 -197.5t-122 -143t-200.5 -53.5t-200.5 53.5zM537.5 130.5q54.5 36.5 83 101.5t28.5 150t-28.5 149.5t-83 101t-130.5 36.5t-130.5 -36.5
t-82.5 -101t-28 -149.5t28 -150t82.5 -101.5t130.5 -36.5t130.5 36.5zM422.5 828q-20.5 13 -43.5 37q-14 15 -23 22t-20 7q-33 0 -38 -75h-74q3 72 34 113.5t82 41.5q30 0 50 -13t42 -36q15 -15 24.5 -22t20.5 -7q14 0 23.5 18.5t10.5 54.5h76q-5 -79 -31 -116.5t-80 -37.5
q-33 0 -53.5 13z" />
    <glyph glyph-name="Odieresis" unicode="&#xd6;" horiz-adv-x="815" 
d="M206.5 41.5q-81.5 53.5 -121.5 143t-40 197.5q0 109 40 198t121.5 142t200.5 53t200.5 -53t122 -142t40.5 -198q0 -108 -40.5 -197.5t-122 -143t-200.5 -53.5t-200.5 53.5zM537.5 130.5q54.5 36.5 83 101.5t28.5 150t-28.5 149.5t-83 101t-130.5 36.5t-130.5 -36.5
t-82.5 -101t-28 -149.5t28 -150t82.5 -101.5t130.5 -36.5t130.5 36.5zM254.5 826.5q-20.5 18.5 -20.5 47.5t20.5 48t49.5 19q28 0 48.5 -19.5t20.5 -47.5t-20.5 -47t-48.5 -19q-29 0 -49.5 18.5zM460.5 826.5q-20.5 18.5 -20.5 47.5t20.5 48t49.5 19q28 0 48.5 -19.5
t20.5 -47.5t-20.5 -47t-48.5 -19q-29 0 -49.5 18.5z" />
    <glyph glyph-name="multiply" unicode="&#xd7;" horiz-adv-x="567" 
d="M284 277l-167 -167l-61 61l166 167l-166 166l61 61l167 -166l166 166l61 -61l-166 -166l166 -167l-60 -61z" />
    <glyph glyph-name="Oslash" unicode="&#xd8;" horiz-adv-x="815" 
d="M704 626q66 -102 66 -244q0 -108 -40.5 -197.5t-122 -143t-200.5 -53.5q-155 0 -249 92l-57 -56l-53 51l63 63q-33 50 -49.5 112.5t-16.5 131.5q0 109 40 198t121.5 142t200.5 53q153 0 250 -91l57 57l52 -53zM198 225l377 377q-65 67 -168 67q-76 0 -130.5 -36.5
t-82.5 -101t-28 -149.5q0 -90 32 -157zM537.5 130.5q54.5 36.5 83 101.5t28.5 150q0 90 -32 157l-378 -377q65 -68 168 -68q76 0 130.5 36.5z" />
    <glyph glyph-name="Ugrave" unicode="&#xd9;" horiz-adv-x="724" 
d="M139 62.5q-73 74.5 -73 207.5v493h118v-493q0 -177 178 -177q92 0 134.5 46.5t42.5 130.5v493h118v-493q0 -132 -73 -207t-222 -75q-150 0 -223 74.5zM299 969l116 -150h-91l-147 150h122z" />
    <glyph glyph-name="Uacute" unicode="&#xda;" horiz-adv-x="724" 
d="M139 62.5q-73 74.5 -73 207.5v493h118v-493q0 -177 178 -177q92 0 134.5 46.5t42.5 130.5v493h118v-493q0 -132 -73 -207t-222 -75q-150 0 -223 74.5zM399 819h-91l116 150h122z" />
    <glyph glyph-name="Ucircumflex" unicode="&#xdb;" horiz-adv-x="724" 
d="M139 62.5q-73 74.5 -73 207.5v493h118v-493q0 -177 178 -177q92 0 134.5 46.5t42.5 130.5v493h118v-493q0 -132 -73 -207t-222 -75q-150 0 -223 74.5zM298 824h-108l165 172h14l164 -172h-108l-63 80z" />
    <glyph glyph-name="Udieresis" unicode="&#xdc;" horiz-adv-x="724" 
d="M139 62.5q-73 74.5 -73 207.5v493h118v-493q0 -177 178 -177q92 0 134.5 46.5t42.5 130.5v493h118v-493q0 -132 -73 -207t-222 -75q-150 0 -223 74.5zM209.5 826.5q-20.5 18.5 -20.5 47.5t20.5 48t49.5 19q28 0 48.5 -19.5t20.5 -47.5t-20.5 -47t-48.5 -19
q-29 0 -49.5 18.5zM415.5 826.5q-20.5 18.5 -20.5 47.5t20.5 48t49.5 19q28 0 48.5 -19.5t20.5 -47.5t-20.5 -47t-48.5 -19q-29 0 -49.5 18.5z" />
    <glyph glyph-name="Yacute" unicode="&#xdd;" horiz-adv-x="687" 
d="M406 0h-123v295l-283 468h138l205 -352l207 352h136l-280 -468v-295zM381 819h-91l116 150h122z" />
    <glyph glyph-name="Thorn" unicode="&#xde;" horiz-adv-x="650" 
d="M73 0v763h117v-106h189q112 0 177.5 -55t65.5 -163q0 -104 -66 -163.5t-177 -59.5h-189v-216h-117zM366 319q67 0 103 30t36 87q0 55 -36.5 85t-102.5 30h-176v-232h176z" />
    <glyph glyph-name="germandbls" unicode="&#xdf;" horiz-adv-x="681" 
d="M77 487q0 139 71 213t205 74q74 0 132.5 -25t91.5 -69.5t33 -100.5q0 -64 -26.5 -105t-81.5 -61q74 -17 110 -65.5t36 -130.5q0 -65 -33 -114t-93.5 -76t-139.5 -27h-78v98h68q80 0 123 33t43 94t-38 93.5t-110 32.5h-86v93h65q62 0 96.5 30.5t34.5 85.5q0 52 -40 84
t-106 32q-77 0 -122 -46.5t-45 -139.5v-490h-110v487z" />
    <glyph glyph-name="agrave" unicode="&#xe0;" horiz-adv-x="584" 
d="M93 32.5q-50 43.5 -50 118.5q0 77 60 121q45 33 129 49l182 35q-1 58 -31 89q-33 33 -88 33q-45 0 -78.5 -25.5t-42.5 -68.5h-109q14 88 79 136t152 48q49 0 92.5 -14.5t73.5 -42.5q40 -37 50.5 -87t10.5 -115v-309h-110v82q-23 -39 -58 -61q-50 -32 -130 -32
q-82 0 -132 43.5zM327 98q49 25 68.5 66.5t19.5 107.5l-157 -31q-58 -12 -84 -36q-21 -21 -21 -51q0 -35 25.5 -54.5t68.5 -19.5q44 0 80 18zM236 763l116 -150h-91l-147 150h122z" />
    <glyph glyph-name="aacute" unicode="&#xe1;" horiz-adv-x="584" 
d="M93 32.5q-50 43.5 -50 118.5q0 77 60 121q45 33 129 49l182 35q-1 58 -31 89q-33 33 -88 33q-45 0 -78.5 -25.5t-42.5 -68.5h-109q14 88 79 136t152 48q49 0 92.5 -14.5t73.5 -42.5q40 -37 50.5 -87t10.5 -115v-309h-110v82q-23 -39 -58 -61q-50 -32 -130 -32
q-82 0 -132 43.5zM327 98q49 25 68.5 66.5t19.5 107.5l-157 -31q-58 -12 -84 -36q-21 -21 -21 -51q0 -35 25.5 -54.5t68.5 -19.5q44 0 80 18zM336 613h-91l116 150h122z" />
    <glyph glyph-name="acircumflex" unicode="&#xe2;" horiz-adv-x="584" 
d="M93 32.5q-50 43.5 -50 118.5q0 77 60 121q45 33 129 49l182 35q-1 58 -31 89q-33 33 -88 33q-45 0 -78.5 -25.5t-42.5 -68.5h-109q14 88 79 136t152 48q49 0 92.5 -14.5t73.5 -42.5q40 -37 50.5 -87t10.5 -115v-309h-110v82q-23 -39 -58 -61q-50 -32 -130 -32
q-82 0 -132 43.5zM327 98q49 25 68.5 66.5t19.5 107.5l-157 -31q-58 -12 -84 -36q-21 -21 -21 -51q0 -35 25.5 -54.5t68.5 -19.5q44 0 80 18zM235 618h-108l165 172h14l164 -172h-108l-63 80z" />
    <glyph glyph-name="atilde" unicode="&#xe3;" horiz-adv-x="584" 
d="M93 32.5q-50 43.5 -50 118.5q0 77 60 121q45 33 129 49l182 35q-1 58 -31 89q-33 33 -88 33q-45 0 -78.5 -25.5t-42.5 -68.5h-109q14 88 79 136t152 48q49 0 92.5 -14.5t73.5 -42.5q40 -37 50.5 -87t10.5 -115v-309h-110v82q-23 -39 -58 -61q-50 -32 -130 -32
q-82 0 -132 43.5zM327 98q49 25 68.5 66.5t19.5 107.5l-157 -31q-58 -12 -84 -36q-21 -21 -21 -51q0 -35 25.5 -54.5t68.5 -19.5q44 0 80 18zM313.5 622q-20.5 13 -43.5 37q-14 15 -23 22t-20 7q-33 0 -38 -75h-74q3 72 34 113.5t82 41.5q30 0 50 -13t42 -36
q15 -15 24.5 -22t20.5 -7q14 0 23.5 18.5t10.5 54.5h76q-5 -79 -31 -116.5t-80 -37.5q-33 0 -53.5 13z" />
    <glyph glyph-name="adieresis" unicode="&#xe4;" horiz-adv-x="584" 
d="M93 32.5q-50 43.5 -50 118.5q0 77 60 121q45 33 129 49l182 35q-1 58 -31 89q-33 33 -88 33q-45 0 -78.5 -25.5t-42.5 -68.5h-109q14 88 79 136t152 48q49 0 92.5 -14.5t73.5 -42.5q40 -37 50.5 -87t10.5 -115v-309h-110v82q-23 -39 -58 -61q-50 -32 -130 -32
q-82 0 -132 43.5zM327 98q49 25 68.5 66.5t19.5 107.5l-157 -31q-58 -12 -84 -36q-21 -21 -21 -51q0 -35 25.5 -54.5t68.5 -19.5q44 0 80 18zM143 655q-22 20 -22 50t22 50t52 20q31 0 52.5 -20t21.5 -50t-21.5 -50t-52.5 -20q-30 0 -52 20zM348.5 655q-21.5 20 -21.5 50
t21.5 50t52.5 20t52.5 -20t21.5 -50t-21.5 -50t-52.5 -20t-52.5 20z" />
    <glyph glyph-name="aring" unicode="&#xe5;" horiz-adv-x="584" 
d="M93 32.5q-50 43.5 -50 118.5q0 77 60 121q45 33 129 49l182 35q-1 58 -31 89q-33 33 -88 33q-45 0 -78.5 -25.5t-42.5 -68.5h-109q14 88 79 136t152 48q49 0 92.5 -14.5t73.5 -42.5q40 -37 50.5 -87t10.5 -115v-309h-110v82q-23 -39 -58 -61q-50 -32 -130 -32
q-82 0 -132 43.5zM327 98q49 25 68.5 66.5t19.5 107.5l-157 -31q-58 -12 -84 -36q-21 -21 -21 -51q0 -35 25.5 -54.5t68.5 -19.5q44 0 80 18zM236 594q-28 17 -44.5 45.5t-16.5 61.5q0 51 36 86.5t87 35.5t87.5 -35.5t36.5 -86.5t-36 -87.5t-88 -36.5q-34 0 -62 17zM337 662
q15 16 15 41q0 22 -14.5 37t-39.5 15q-24 0 -39 -15t-15 -37q0 -25 15.5 -41t38.5 -16q24 0 39 16z" />
    <glyph glyph-name="ae" unicode="&#xe6;" horiz-adv-x="1006" 
d="M964 256h-437q3 -33 16 -60q20 -51 60 -81t91 -30q53 0 91 27.5t55 70.5h114q-27 -86 -93.5 -140t-168.5 -54q-78 0 -139.5 34.5t-96.5 95.5h-7q-25 -63 -81 -96q-56 -34 -140 -34t-134.5 43t-50.5 119q0 77 60 121q45 33 129 49l182 35q-1 58 -31 89q-33 33 -88 33
q-45 0 -78.5 -25.5t-42.5 -68.5h-109q14 88 79 136t152 48q49 0 92.5 -14.5t73.5 -42.5q14 -12 25 -30q76 87 202 87q74 0 136.5 -32t100.5 -95.5t38 -154.5v-30zM849 345q-2 29 -16 53q-21 38 -58 58.5t-83 20.5t-82 -20.5t-57 -58.5q-15 -22 -19 -53h315zM395.5 164.5
q19.5 41.5 19.5 107.5l-157 -31q-58 -12 -84 -36q-21 -21 -21 -51q0 -35 25.5 -54.5t68.5 -19.5q44 0 80 18q49 25 68.5 66.5z" />
    <glyph glyph-name="ccedilla" unicode="&#xe7;" horiz-adv-x="611" 
d="M575 183q-19 -88 -86 -140t-162 -54q-16 -16 -41 -34l6 -9q20 3 34 3q26 0 42 -8q51 -20 51 -69q0 -43 -35.5 -65.5t-91.5 -22.5q-49 0 -94 13v44q51 -18 88 -18q30 0 47.5 12t17.5 34q0 34 -35.5 46.5t-103.5 11.5l54 66q-67 12 -117.5 51t-78 100t-27.5 137
q0 83 35 148t97.5 102t143.5 37q97 0 164.5 -50t87.5 -134h-118q-15 43 -50 67t-84 24q-48 0 -85 -24.5t-58 -68.5t-21 -101q0 -59 21 -104t58 -70t85 -25q52 0 88.5 27.5t48.5 73.5h119z" />
    <glyph glyph-name="egrave" unicode="&#xe8;" horiz-adv-x="635" 
d="M176 26.5q-63 37.5 -98 103t-35 146.5q0 76 31.5 143t93.5 108t149 41q74 0 136.5 -32t100.5 -95.5t38 -154.5v-30h-437q3 -33 16 -60q20 -51 60 -81t91 -30q53 0 91 27.5t55 70.5h115q-28 -86 -94.5 -140t-168.5 -54q-81 0 -144 37.5zM478 345q-4 31 -17 53
q-20 38 -57.5 58.5t-82.5 20.5q-47 0 -83 -20.5t-57 -58.5q-12 -20 -19 -53h316zM254 763l116 -150h-91l-147 150h122z" />
    <glyph glyph-name="eacute" unicode="&#xe9;" horiz-adv-x="635" 
d="M176 26.5q-63 37.5 -98 103t-35 146.5q0 76 31.5 143t93.5 108t149 41q74 0 136.5 -32t100.5 -95.5t38 -154.5v-30h-437q3 -33 16 -60q20 -51 60 -81t91 -30q53 0 91 27.5t55 70.5h115q-28 -86 -94.5 -140t-168.5 -54q-81 0 -144 37.5zM478 345q-4 31 -17 53
q-20 38 -57.5 58.5t-82.5 20.5q-47 0 -83 -20.5t-57 -58.5q-12 -20 -19 -53h316zM355 613h-91l116 150h122z" />
    <glyph glyph-name="ecircumflex" unicode="&#xea;" horiz-adv-x="635" 
d="M176 26.5q-63 37.5 -98 103t-35 146.5q0 76 31.5 143t93.5 108t149 41q74 0 136.5 -32t100.5 -95.5t38 -154.5v-30h-437q3 -33 16 -60q20 -51 60 -81t91 -30q53 0 91 27.5t55 70.5h115q-28 -86 -94.5 -140t-168.5 -54q-81 0 -144 37.5zM478 345q-4 31 -17 53
q-20 38 -57.5 58.5t-82.5 20.5q-47 0 -83 -20.5t-57 -58.5q-12 -20 -19 -53h316zM254 618h-108l165 172h14l164 -172h-108l-63 80z" />
    <glyph glyph-name="edieresis" unicode="&#xeb;" horiz-adv-x="635" 
d="M176 26.5q-63 37.5 -98 103t-35 146.5q0 76 31.5 143t93.5 108t149 41q74 0 136.5 -32t100.5 -95.5t38 -154.5v-30h-437q3 -33 16 -60q20 -51 60 -81t91 -30q53 0 91 27.5t55 70.5h115q-28 -86 -94.5 -140t-168.5 -54q-81 0 -144 37.5zM478 345q-4 31 -17 53
q-20 38 -57.5 58.5t-82.5 20.5q-47 0 -83 -20.5t-57 -58.5q-12 -20 -19 -53h316zM162 655q-22 20 -22 50t22 50t52 20q31 0 52.5 -20t21.5 -50t-21.5 -50t-52.5 -20q-30 0 -52 20zM367.5 655q-21.5 20 -21.5 50t21.5 50t52.5 20t52.5 -20t21.5 -50t-21.5 -50t-52.5 -20
t-52.5 20z" />
    <glyph glyph-name="igrave" unicode="&#xec;" horiz-adv-x="242" 
d="M176 0h-110v557h110v-557zM59 763l116 -150h-91l-147 150h122z" />
    <glyph glyph-name="iacute" unicode="&#xed;" horiz-adv-x="242" 
d="M176 0h-110v557h110v-557zM159 613h-91l116 150h122z" />
    <glyph glyph-name="icircumflex" unicode="&#xee;" horiz-adv-x="242" 
d="M176 0h-110v557h110v-557zM58 618h-108l165 172h14l164 -172h-108l-63 80z" />
    <glyph glyph-name="idieresis" unicode="&#xef;" horiz-adv-x="242" 
d="M176 0h-110v557h110v-557zM-34 655q-22 20 -22 50t22 50t52 20q31 0 52.5 -20t21.5 -50t-21.5 -50t-52.5 -20q-30 0 -52 20zM171.5 655q-21.5 20 -21.5 50t21.5 50t52.5 20t52.5 -20t21.5 -50t-21.5 -50t-52.5 -20t-52.5 20z" />
    <glyph glyph-name="eth" unicode="&#xf0;" horiz-adv-x="610" 
d="M149 22.5q-58 33.5 -90 93.5t-32 135q0 74 30 130t85 86.5t127 30.5q54 0 102 -22t85 -66q0 66 -16 121t-48 91l-134 -77l-32 55l108 62q-34 16 -71 16q-50 0 -89 -21l-52 87q65 30 144 30q99 0 169 -53l74 42l32 -55l-60 -34q82 -107 82 -306q0 -178 -71.5 -278.5
t-210.5 -100.5q-74 0 -132 33.5zM362.5 109.5q35.5 21.5 56 59t20.5 83.5q0 42 -20.5 77t-56 55.5t-78.5 20.5t-77.5 -20t-53.5 -55t-19 -78q0 -45 19 -82.5t52.5 -59.5t76.5 -22q45 0 80.5 21.5z" />
    <glyph glyph-name="ntilde" unicode="&#xf1;" horiz-adv-x="590" 
d="M66 0v557h110v-78q37 49 74 69t84 20q125 0 169 -90q17 -33 21 -67.5t4 -82.5v-328h-110v329q0 85 -29 118q-27 28 -78 28q-61 0 -94 -38q-22 -24 -31.5 -65t-9.5 -111v-261h-110zM311.5 622q-20.5 13 -43.5 37q-14 15 -23 22t-20 7q-33 0 -38 -75h-74q3 72 34 113.5
t82 41.5q30 0 50 -13t42 -36q15 -15 24.5 -22t20.5 -7q14 0 23.5 18.5t10.5 54.5h76q-5 -79 -31 -116.5t-80 -37.5q-33 0 -53.5 13z" />
    <glyph glyph-name="ograve" unicode="&#xf2;" horiz-adv-x="645" 
d="M177.5 26q-63.5 37 -99 103.5t-35.5 151.5q0 83 35.5 148t99 102t144.5 37t144.5 -37t99 -102t35.5 -148q0 -84 -35 -150.5t-98.5 -104t-145.5 -37.5q-81 0 -144.5 37zM408 110q38 25 59.5 70t21.5 101q0 54 -21.5 97.5t-59.5 68.5t-86 25t-86 -24.5t-59.5 -68
t-21.5 -98.5q0 -57 21.5 -101.5t59.5 -69.5t86 -25t86 25zM259 763l116 -150h-91l-147 150h122z" />
    <glyph glyph-name="oacute" unicode="&#xf3;" horiz-adv-x="645" 
d="M177.5 26q-63.5 37 -99 103.5t-35.5 151.5q0 83 35.5 148t99 102t144.5 37t144.5 -37t99 -102t35.5 -148q0 -84 -35 -150.5t-98.5 -104t-145.5 -37.5q-81 0 -144.5 37zM408 110q38 25 59.5 70t21.5 101q0 54 -21.5 97.5t-59.5 68.5t-86 25t-86 -24.5t-59.5 -68
t-21.5 -98.5q0 -57 21.5 -101.5t59.5 -69.5t86 -25t86 25zM360 613h-91l116 150h122z" />
    <glyph glyph-name="ocircumflex" unicode="&#xf4;" horiz-adv-x="645" 
d="M177.5 26q-63.5 37 -99 103.5t-35.5 151.5q0 83 35.5 148t99 102t144.5 37t144.5 -37t99 -102t35.5 -148q0 -84 -35 -150.5t-98.5 -104t-145.5 -37.5q-81 0 -144.5 37zM408 110q38 25 59.5 70t21.5 101q0 54 -21.5 97.5t-59.5 68.5t-86 25t-86 -24.5t-59.5 -68
t-21.5 -98.5q0 -57 21.5 -101.5t59.5 -69.5t86 -25t86 25zM259 618h-108l165 172h14l164 -172h-108l-63 80z" />
    <glyph glyph-name="otilde" unicode="&#xf5;" horiz-adv-x="645" 
d="M177.5 26q-63.5 37 -99 103.5t-35.5 151.5q0 83 35.5 148t99 102t144.5 37t144.5 -37t99 -102t35.5 -148q0 -84 -35 -150.5t-98.5 -104t-145.5 -37.5q-81 0 -144.5 37zM408 110q38 25 59.5 70t21.5 101q0 54 -21.5 97.5t-59.5 68.5t-86 25t-86 -24.5t-59.5 -68
t-21.5 -98.5q0 -57 21.5 -101.5t59.5 -69.5t86 -25t86 25zM337.5 622q-20.5 13 -43.5 37q-14 15 -23 22t-20 7q-33 0 -38 -75h-74q3 72 34 113.5t82 41.5q30 0 50 -13t42 -36q15 -15 24.5 -22t20.5 -7q14 0 23.5 18.5t10.5 54.5h76q-5 -79 -31 -116.5t-80 -37.5
q-33 0 -53.5 13z" />
    <glyph glyph-name="odieresis" unicode="&#xf6;" horiz-adv-x="645" 
d="M177.5 26q-63.5 37 -99 103.5t-35.5 151.5q0 83 35.5 148t99 102t144.5 37t144.5 -37t99 -102t35.5 -148q0 -84 -35 -150.5t-98.5 -104t-145.5 -37.5q-81 0 -144.5 37zM408 110q38 25 59.5 70t21.5 101q0 54 -21.5 97.5t-59.5 68.5t-86 25t-86 -24.5t-59.5 -68
t-21.5 -98.5q0 -57 21.5 -101.5t59.5 -69.5t86 -25t86 25zM167 655q-22 20 -22 50t22 50t52 20q31 0 52.5 -20t21.5 -50t-21.5 -50t-52.5 -20q-30 0 -52 20zM372.5 655q-21.5 20 -21.5 50t21.5 50t52.5 20t52.5 -20t21.5 -50t-21.5 -50t-52.5 -20t-52.5 20z" />
    <glyph glyph-name="divide" unicode="&#xf7;" horiz-adv-x="492" 
d="M308 457h-125v135h125v-135zM466 297h-440v86h440v-86zM308 76h-125v137h125v-137z" />
    <glyph glyph-name="oslash" unicode="&#xf8;" horiz-adv-x="645" 
d="M550 454q51 -73 51 -173q0 -84 -35 -150.5t-98.5 -104t-145.5 -37.5q-104 0 -178 60l-45 -45l-53 51l48 48q-51 77 -51 178q0 83 35.5 148t99 102t144.5 37q103 0 178 -59l45 45l52 -53zM175 184l250 250q-44 38 -103 38q-48 0 -86 -24.5t-59.5 -68t-21.5 -98.5
q0 -54 20 -97zM408 110q38 25 59.5 70t21.5 101q0 50 -19 93l-251 -251q44 -38 103 -38q48 0 86 25z" />
    <glyph glyph-name="ugrave" unicode="&#xf9;" horiz-adv-x="592" 
d="M88 80q-13 26 -18.5 60t-5.5 89v328h110v-329q0 -85 29 -118q26 -28 78 -28q60 0 93 38q22 24 32 65t10 111v261h110v-557h-110v79q-36 -48 -73.5 -69t-85.5 -21q-122 0 -169 91zM233 763l116 -150h-91l-147 150h122z" />
    <glyph glyph-name="uacute" unicode="&#xfa;" horiz-adv-x="592" 
d="M88 80q-13 26 -18.5 60t-5.5 89v328h110v-329q0 -85 29 -118q26 -28 78 -28q60 0 93 38q22 24 32 65t10 111v261h110v-557h-110v79q-36 -48 -73.5 -69t-85.5 -21q-122 0 -169 91zM334 613h-91l116 150h122z" />
    <glyph glyph-name="ucircumflex" unicode="&#xfb;" horiz-adv-x="592" 
d="M88 80q-13 26 -18.5 60t-5.5 89v328h110v-329q0 -85 29 -118q26 -28 78 -28q60 0 93 38q22 24 32 65t10 111v261h110v-557h-110v79q-36 -48 -73.5 -69t-85.5 -21q-122 0 -169 91zM232 618h-108l165 172h14l164 -172h-108l-63 80z" />
    <glyph glyph-name="udieresis" unicode="&#xfc;" horiz-adv-x="592" 
d="M88 80q-13 26 -18.5 60t-5.5 89v328h110v-329q0 -85 29 -118q26 -28 78 -28q60 0 93 38q22 24 32 65t10 111v261h110v-557h-110v79q-36 -48 -73.5 -69t-85.5 -21q-122 0 -169 91zM141 655q-22 20 -22 50t22 50t52 20q31 0 52.5 -20t21.5 -50t-21.5 -50t-52.5 -20
q-30 0 -52 20zM346.5 655q-21.5 20 -21.5 50t21.5 50t52.5 20t52.5 -20t21.5 -50t-21.5 -50t-52.5 -20t-52.5 20z" />
    <glyph glyph-name="yacute" unicode="&#xfd;" horiz-adv-x="557" 
d="M70 -206v96h57q33 0 48.5 9t28.5 43l22 61l-211 554h120l149 -421l137 421h119l-232 -645q-24 -67 -57 -92.5t-93 -25.5h-88zM314 613h-91l116 150h122z" />
    <glyph glyph-name="thorn" unicode="&#xfe;" horiz-adv-x="639" 
d="M67 -206v969h110v-284q37 49 76 69t94 20q73 0 129 -36.5t86.5 -102.5t30.5 -150q0 -85 -30.5 -151t-86.5 -102.5t-129 -36.5q-54 0 -93.5 20t-76.5 70v-285h-110zM440.5 139.5q42.5 54.5 42.5 139.5t-42.5 139t-113.5 54q-46 0 -82.5 -24.5t-57 -68.5t-20.5 -100
t20.5 -100.5t57 -69t82.5 -24.5q71 0 113.5 54.5z" />
    <glyph glyph-name="ydieresis" unicode="&#xff;" horiz-adv-x="557" 
d="M70 -206v96h57q33 0 48.5 9t28.5 43l22 61l-211 554h120l149 -421l137 421h119l-232 -645q-24 -67 -57 -92.5t-93 -25.5h-88zM121 655q-22 20 -22 50t22 50t52 20q31 0 52.5 -20t21.5 -50t-21.5 -50t-52.5 -20q-30 0 -52 20zM326.5 655q-21.5 20 -21.5 50t21.5 50
t52.5 20t52.5 -20t21.5 -50t-21.5 -50t-52.5 -20t-52.5 20z" />
    <glyph glyph-name="dotlessi" unicode="&#x131;" horiz-adv-x="242" 
d="M176 0h-110v557h110v-557z" />
    <glyph glyph-name="OE" unicode="&#x152;" horiz-adv-x="1194" 
d="M205.5 41.5q-80.5 53.5 -120.5 143t-40 197.5t40 197.5t120.5 142.5t196.5 53q153 0 247 -114v102h502v-106h-384v-222h341v-105h-341v-224h384v-106h-502v102q-95 -114 -247 -114q-116 0 -196.5 53.5zM537.5 130.5q54.5 36.5 83 101.5t28.5 150t-28.5 149.5t-83 101
t-130.5 36.5t-130.5 -36.5t-82.5 -101t-28 -149.5t28 -150t82.5 -101.5t130.5 -36.5t130.5 36.5z" />
    <glyph glyph-name="oe" unicode="&#x153;" horiz-adv-x="1082" 
d="M1039 256h-437q3 -33 16 -60q20 -52 60.5 -81.5t91.5 -29.5q53 0 90.5 27.5t54.5 70.5h115q-28 -86 -94.5 -140t-167.5 -54q-71 0 -128.5 28.5t-94.5 79.5q-37 -51 -94.5 -79.5t-128.5 -28.5q-81 0 -144.5 37t-99 103.5t-35.5 151.5q0 83 35.5 148t99 102t144.5 37
q71 0 129 -28.5t95 -79.5q35 50 91 79t128 29q73 0 135.5 -32t100.5 -95.5t38 -154.5v-30zM925 345q-4 33 -17 53q-20 38 -57 58.5t-83 20.5q-47 0 -83 -20.5t-57 -58.5q-12 -20 -19 -53h316zM408 110q38 25 59.5 70t21.5 101q0 54 -21.5 97.5t-59.5 68.5t-86 25t-86 -24.5
t-59.5 -68t-21.5 -98.5q0 -57 21.5 -101.5t59.5 -69.5t86 -25t86 25z" />
    <glyph glyph-name="uni0237" horiz-adv-x="243" 
d="M-50 -206v96h52q31 0 48 14.5t17 54.5v598h110v-623q0 -69 -35.5 -104.5t-103.5 -35.5h-88z" />
    <glyph glyph-name="circumflex" unicode="&#x2c6;" horiz-adv-x="363" 
d="M118 618h-108l165 172h14l164 -172h-108l-63 80z" />
    <glyph glyph-name="ring" unicode="&#x2da;" horiz-adv-x="267" 
d="M71 595q-28 17 -44.5 45.5t-16.5 61.5q0 51 36 86.5t87 35.5t87.5 -35.5t36.5 -86.5t-36 -87.5t-88 -36.5q-34 0 -62 17zM172 663q15 16 15 41q0 22 -14.5 37t-39.5 15q-24 0 -39 -15t-15 -37q0 -25 15.5 -41t38.5 -16q24 0 39 16z" />
    <glyph glyph-name="tilde" unicode="&#x2dc;" horiz-adv-x="384" 
d="M208.5 622q-20.5 13 -43.5 37q-14 15 -23 22t-20 7q-33 0 -38 -75h-74q3 72 34 113.5t82 41.5q30 0 50 -13t42 -36q15 -15 24.5 -22t20.5 -7q14 0 23.5 18.5t10.5 54.5h76q-5 -79 -31 -116.5t-80 -37.5q-33 0 -53.5 13z" />
    <glyph glyph-name="gravecomb" 
d="M-127 763l116 -150h-91l-147 150h122z" />
    <glyph glyph-name="acutecomb" 
d="M-157 613h-91l116 150h122z" />
    <glyph glyph-name="uni0302" 
d="M-245 618h-108l165 172h14l164 -172h-108l-63 80z" />
    <glyph glyph-name="tildecomb" 
d="M-175.5 622q-20.5 13 -43.5 37q-14 15 -23 22t-20 7q-33 0 -38 -75h-74q3 72 34 113.5t82 41.5q30 0 50 -13t42 -36q15 -15 24.5 -22t20.5 -7q14 0 23.5 18.5t10.5 54.5h76q-5 -79 -31 -116.5t-80 -37.5q-33 0 -53.5 13z" />
    <glyph glyph-name="uni0304" 
d="M-11 648h-298v53h298v-53z" />
    <glyph glyph-name="uni0307" 
d="M-137 655q-22 20 -22 50t22 50t52 20q31 0 52.5 -20t21.5 -50t-21.5 -50t-52.5 -20q-30 0 -52 20z" />
    <glyph glyph-name="uni0308" 
d="M-343 655q-22 20 -22 50t22 50t52 20q31 0 52.5 -20t21.5 -50t-21.5 -50t-52.5 -20q-30 0 -52 20zM-137.5 655q-21.5 20 -21.5 50t21.5 50t52.5 20t52.5 -20t21.5 -50t-21.5 -50t-52.5 -20t-52.5 20z" />
    <glyph glyph-name="uni030A" 
d="M-196 595q-28 17 -44.5 45.5t-16.5 61.5q0 51 36 86.5t87 35.5t87.5 -35.5t36.5 -86.5t-36 -87.5t-88 -36.5q-34 0 -62 17zM-95 663q15 16 15 41q0 22 -14.5 37t-39.5 15q-24 0 -39 -15t-15 -37q0 -25 15.5 -41t38.5 -16q24 0 39 16z" />
    <glyph glyph-name="uni0327" 
d="M-231 -203v44q51 -18 88 -18q30 0 47.5 12t17.5 34q0 34 -35.5 46.5t-103.5 11.5l73 90h68q-18 -20 -30.5 -32.5t-36.5 -29.5l6 -9q19 3 34 3q26 0 42 -8q51 -20 51 -69q0 -43 -35.5 -65.5t-91.5 -22.5q-49 0 -94 13z" />
    <glyph glyph-name="endash" unicode="&#x2013;" horiz-adv-x="546" 
d="M523 289h-501v81h501v-81z" />
    <glyph glyph-name="emdash" unicode="&#x2014;" horiz-adv-x="1106" 
d="M1106 289h-1106v81h1106v-81z" />
    <glyph glyph-name="uni2015" unicode="&#x2015;" horiz-adv-x="798" 
d="M730 299h-662v68h662v-68z" />
    <glyph glyph-name="quoteleft" unicode="&#x2018;" horiz-adv-x="299" 
d="M85 508.5q-25 34.5 -25 90.5q0 67 40.5 117.5t123.5 57.5v-58q-47 -4 -73.5 -29.5t-28.5 -66.5l-1 -12q0 -5 2 -17q14 22 47 22q24 0 41.5 -18.5t17.5 -48.5q0 -32 -20.5 -52t-54.5 -20q-44 0 -69 34.5z" />
    <glyph glyph-name="quoteright" unicode="&#x2019;" horiz-adv-x="300" 
d="M75 532q47 4 73.5 29.5t29.5 66.5q0 19 -2 29q-14 -22 -47 -22q-24 0 -41.5 18.5t-17.5 48.5q0 32 20.5 52t54.5 20q44 0 69.5 -34.5t25.5 -90.5q0 -67 -40.5 -117.5t-124.5 -57.5v58z" />
    <glyph glyph-name="quotesinglbase" unicode="&#x201a;" horiz-adv-x="272" 
d="M56 -113q47 4 74 29.5t29 66.5q0 19 -1 29q-15 -22 -47 -22q-24 0 -42 18.5t-18 48.5q0 32 20.5 51.5t54.5 19.5q45 0 70 -34t25 -90q0 -67 -40.5 -117.5t-124.5 -57.5v58z" />
    <glyph glyph-name="quotedblleft" unicode="&#x201c;" horiz-adv-x="511" 
d="M224 716q-47 -4 -73.5 -30t-28.5 -66l-1 -12q0 -6 2 -18q14 23 47 23q24 0 41.5 -18.5t17.5 -48.5q0 -32 -20.5 -52t-54.5 -20q-44 0 -69 34t-25 90q0 67 40.5 117.5t123.5 57.5v-57zM436 716q-47 -4 -74 -30t-29 -66v-9q0 -14 1 -21q14 23 47 23q24 0 42 -18.5t18 -48.5
q0 -32 -21 -52t-55 -20q-44 0 -69 34t-25 90q0 67 40.5 117.5t124.5 57.5v-57z" />
    <glyph glyph-name="quotedblright" unicode="&#x201d;" horiz-adv-x="511" 
d="M75 532q47 4 73.5 29.5t29.5 66.5q0 19 -2 29q-14 -22 -47 -22q-24 0 -41.5 18.5t-17.5 48.5q0 32 20.5 52t54.5 20q44 0 69.5 -34.5t25.5 -90.5q0 -67 -40.5 -117.5t-124.5 -57.5v58zM286 532q47 4 73.5 29.5t29.5 66.5q0 19 -2 29q-14 -22 -47 -22q-24 0 -41.5 18.5
t-17.5 48.5q0 32 20.5 52t54.5 20q44 0 69.5 -34.5t25.5 -90.5q0 -67 -40.5 -117.5t-124.5 -57.5v58z" />
    <glyph glyph-name="quotedblbase" unicode="&#x201e;" horiz-adv-x="483" 
d="M56 -114q47 4 73.5 29.5t29.5 66.5q0 19 -2 29q-14 -22 -47 -22q-24 0 -41.5 18.5t-17.5 48.5q0 32 20.5 52t54.5 20q44 0 69.5 -34.5t25.5 -90.5q0 -67 -40.5 -117.5t-124.5 -57.5v58zM267 -114q47 4 73.5 29.5t29.5 66.5q0 19 -2 29q-14 -22 -47 -22q-24 0 -41.5 18.5
t-17.5 48.5q0 32 20.5 52t54.5 20q44 0 69.5 -34.5t25.5 -90.5q0 -67 -40.5 -117.5t-124.5 -57.5v58z" />
    <glyph glyph-name="dagger" unicode="&#x2020;" horiz-adv-x="618" 
d="M352 -206h-86v647h-236v86h236v236h86v-236h236v-86h-236v-647z" />
    <glyph glyph-name="bullet" unicode="&#x2022;" horiz-adv-x="406" 
d="M138.5 149q-29.5 17 -46.5 46.5t-17 64.5t17 64.5t46.5 46.5t63.5 17q54 0 91.5 -37.5t37.5 -90.5t-37.5 -90.5t-91.5 -37.5q-34 0 -63.5 17z" />
    <glyph glyph-name="uni2023" unicode="&#x2023;" horiz-adv-x="437" 
d="M414 278l-307 -178v354z" />
    <glyph glyph-name="ellipsis" unicode="&#x2026;" horiz-adv-x="687" 
d="M72 9.5q-21 20.5 -21 49.5q0 28 21 48.5t50 20.5q28 0 48 -20.5t20 -48.5q0 -29 -20.5 -49.5t-47.5 -20.5q-29 0 -50 20.5zM295 10q-21 21 -21 49t20.5 48.5t49.5 20.5t49.5 -20.5t20.5 -48.5q0 -29 -21 -49.5t-49 -20.5t-49 21zM517.5 9.5q-20.5 20.5 -20.5 49.5
t20.5 49t49.5 20q28 0 48.5 -20.5t20.5 -48.5q0 -29 -20.5 -49.5t-48.5 -20.5q-29 0 -49.5 20.5z" />
    <glyph glyph-name="perthousand" unicode="&#x2030;" horiz-adv-x="1136" 
d="M122.5 445q-35.5 23 -55.5 63.5t-20 90.5q0 49 19.5 89.5t54.5 63.5t81 23q44 0 79 -23t55 -63.5t20 -89.5t-19.5 -89.5t-54 -64t-77.5 -23.5q-47 0 -82.5 23zM209 0h-95l457 763h96zM253 534q19 26 19 65q0 40 -19.5 66t-50.5 26q-32 0 -51 -25.5t-19 -66.5t19.5 -66
t53.5 -25q29 0 48 26zM502.5 11q-35.5 23 -55.5 63t-20 90t19.5 90t54.5 63t80 23q44 0 79.5 -23.5t55.5 -64t20 -89.5t-20 -89t-54.5 -63t-77.5 -23q-46 0 -81.5 23zM855 11q-36 23 -56 63t-20 90t19.5 90t55 63t80.5 23q44 0 79 -23.5t55 -64t20 -89.5t-20 -89t-54.5 -63
t-76.5 -23q-46 0 -82 23zM632.5 98q19.5 26 19.5 65q0 41 -20 66.5t-51 25.5q-32 0 -50 -25t-18 -66q0 -42 18.5 -67t52.5 -25q29 0 48.5 26zM985.5 98q19.5 26 19.5 65q0 40 -20 66t-51 26q-32 0 -50.5 -25t-18.5 -66q0 -42 19 -67t53 -25q29 0 48.5 26z" />
    <glyph glyph-name="guilsinglleft" unicode="&#x2039;" horiz-adv-x="307" 
d="M236 182v-95l-224 189l224 189v-94l-113 -96z" />
    <glyph glyph-name="guilsinglright" unicode="&#x203a;" horiz-adv-x="307" 
d="M295 276l-224 -189v95l113 93l-113 96v94z" />
    <glyph glyph-name="fraction" unicode="&#x2044;" horiz-adv-x="161" 
d="M-107 0h-63l438 763h62z" />
    <glyph glyph-name="Euro" unicode="&#x20ac;" horiz-adv-x="622" 
d="M331 623q-58 -46 -83 -127h255v-66h-268q-2 -30 -2 -48q0 -15 2 -43h268v-66h-256q23 -84 81.5 -131.5t145.5 -47.5q36 0 74 10v-110q-34 -6 -74 -6q-145 0 -234 78.5t-117 206.5h-76v66h67q-2 28 -2 43q0 16 2 48h-67v66h77q29 126 118 202.5t232 76.5q40 0 74 -6v-110
q-38 10 -74 10q-85 0 -143 -46z" />
    <glyph glyph-name="trademark" unicode="&#x2122;" horiz-adv-x="819" 
d="M207 381h-59v329h-123v53h305v-53h-123v-329zM433 381h-60v382h101l91 -310l90 310h102v-382h-59v341l-104 -341h-58l-103 339v-339z" />
    <glyph glyph-name="minus" unicode="&#x2212;" horiz-adv-x="648" 
d="M539 297h-430v86h430v-86z" />
    <glyph glyph-name="i.loclTRK" horiz-adv-x="242" 
d="M176 0h-110v557h110v-557zM69 655q-22 20 -22 50t22 50t52 20q31 0 52.5 -20t21.5 -50t-21.5 -50t-52.5 -20q-30 0 -52 20z" />
    <glyph glyph-name="uni0308.case" 
d="M-378.5 826.5q-20.5 18.5 -20.5 47.5t20.5 48t49.5 19q28 0 48.5 -19.5t20.5 -47.5t-20.5 -47t-48.5 -19q-29 0 -49.5 18.5zM-172.5 826.5q-20.5 18.5 -20.5 47.5t20.5 48t49.5 19q28 0 48.5 -19.5t20.5 -47.5t-20.5 -47t-48.5 -19q-29 0 -49.5 18.5z" />
    </font>
</defs>
</svg>
