<svg xmlns="http://www.w3.org/2000/svg" width="64" height="30" viewBox="0 0 64 30">
    <g fill="none" fill-rule="evenodd" opacity=".8">
        <g fill="#717180" fill-rule="nonzero">
            <g>
                <g>
                    <g>
                        <g>
                            <path d="M34.435 13.306L36.929 3.913 39.293 13.306 42.438 13.306 45.697 0 42.742 0 40.718 9.601 38.424 0 35.557 0 33.185 9.601 31.212 0 28.188 0 31.264 13.306zM15.407 13.316L15.407 3.836 18.587 13.316 20.959 13.316 24.122 3.836 24.122 13.316 26.868 13.316 26.868.01 23.07.01 19.838 9.894 16.562.01 12.678.01 12.678 13.316zM2.85 2.268H5.91c.597 0 1.051.069 1.364.207.515.224.774.649.774 1.275 0 .517-.169.896-.505 1.137-.324.242-.869.363-1.633.363H2.85V2.268zm0 5.222h3.024c.8 0 1.396.1 1.79.302.515.264.773.755.773 1.473 0 .598-.162 1.032-.486 1.302-.394.327-1.086.491-2.077.491H2.85V7.49zm2.972 5.826c3.69 0 5.535-1.333 5.535-3.998 0-1.483-.718-2.509-2.155-3.077 1.152-.552 1.729-1.503 1.729-2.853 0-1.183-.472-2.071-1.416-2.663C8.762.248 7.739.01 6.448.01H0v13.306h5.822z" transform="translate(-771 -841) translate(274 841) translate(497.15) translate(.478)"/>
                        </g>
                        <g>
                            <path d="M39.4 8.438c0 1.677.445 2.996 1.337 3.955.962 1.034 2.396 1.552 4.301 1.552 1.853 0 3.256-.478 4.206-1.432.973-.97 1.459-2.329 1.459-4.075V.32H47.8v8.307c0 1.953-.913 2.93-2.737 2.93-1.841 0-2.763-.977-2.763-2.93V.32h-2.902v8.118zM34.34 3.646c.626.816.938 1.928.938 3.336 0 1.538-.377 2.72-1.13 3.541-.625.69-1.445 1.034-2.459 1.034-1.135 0-2.021-.42-2.659-1.257-.614-.81-.921-1.917-.921-3.318 0-1.408.307-2.52.921-3.336.643-.845 1.518-1.267 2.624-1.267 1.141 0 2.036.422 2.685 1.267m-7.33-1.783c-1.147 1.228-1.72 2.938-1.72 5.126 0 2.39.686 4.198 2.059 5.421 1.14 1.023 2.632 1.535 4.475 1.535 2.05 0 3.655-.622 4.813-1.862 1.153-1.23 1.73-2.927 1.73-5.094 0-2.177-.577-3.886-1.73-5.126C35.483.62 33.896 0 31.875 0c-2.085 0-3.708.62-4.866 1.863M16.491 2.577h2.798c.77 0 1.343.135 1.72.405.382.276.574.73.574 1.362 0 1.235-.765 1.853-2.294 1.853h-2.798v-3.62zm.067 11.05v-5.19h2.885l2.44 5.19h3.25l-2.875-5.663c1.575-.725 2.363-1.914 2.363-3.568 0-1.161-.301-2.08-.903-2.758C22.947.76 21.742.32 20.103.32h-6.434v13.306h2.89zM10.974 1.655C10.013.552 8.53 0 6.526 0 4.475 0 2.87.638 1.712 1.914.57 3.166 0 4.895 0 7.102c0 2.448.687 4.271 2.06 5.472 1.036.914 2.378 1.37 4.023 1.37 1.79 0 3.136-.554 4.04-1.663l.304 1.345h1.85V6.585H7.3V8.67h2.155v.612c0 .684-.292 1.241-.878 1.672-.556.402-1.263.603-2.12.603-1.118 0-1.978-.378-2.58-1.138-.615-.763-.921-1.867-.921-3.309 0-1.482.292-2.634.877-3.455.608-.85 1.471-1.276 2.59-1.276 1.557 0 2.591.807 3.101 2.422l2.72-.656c-.29-1.028-.713-1.858-1.269-2.49" transform="translate(-771 -841) translate(274 841) translate(497.15) translate(0 16.055)"/>
                        </g>
                    </g>
                    <path d="M55.007 18.625h2.814c.684 0 1.222.17 1.616.51.394.337.591.818.591 1.437 0 .627-.214 1.13-.643 1.51-.41.355-.944.533-1.598.533h-2.78v-3.99zm0 11.05v-4.802h3.075c1.466 0 2.642-.376 3.528-1.128.927-.787 1.39-1.842 1.39-3.163 0-1.305-.403-2.336-1.207-3.094-.806-.747-1.924-1.12-3.354-1.12h-6.3v13.307h2.868z" transform="translate(-771 -841) translate(274 841) translate(497.15)"/>
                </g>
            </g>
        </g>
    </g>
</svg>
