<svg xmlns="http://www.w3.org/2000/svg" width="63" height="27" viewBox="0 0 63 27">
    <g fill="none" fill-rule="evenodd" opacity=".8">
        <g fill="#717180" fill-rule="nonzero">
            <g>
                <g>
                    <path d="M0 0H5.274V5.224H0z" transform="translate(-274 -841) translate(274 841) translate(0 .39)"/>
                    <g>
                        <path d="M4.63 25.637V8.166H0v17.471h4.63zm30.774.173V21.53c-.68 0-1.254-.035-1.671-.104-.488-.07-.853-.242-1.097-.483-.244-.242-.4-.587-.487-1.036-.07-.432-.105-1.002-.105-1.692v-6.112h3.36V8.166h-3.36v-6.82h-4.647v16.902c0 1.433.122 2.642.365 3.609.244.95.662 1.726 1.236 2.313.575.587 1.34 1.001 2.263 1.26.94.26 2.124.38 3.533.38h.61zM62 25.637V0h-4.647v25.637H62zM22.924 9.875c-1.288-1.381-3.099-2.072-5.396-2.072-1.114 0-2.124.225-3.046.674-.905.449-1.689 1.07-2.298 1.864l-.26.328V8.166H7.344v17.471h4.613v-9.305.328c.052-1.64.452-2.849 1.218-3.625.818-.83 1.81-1.243 2.942-1.243 1.34 0 2.367.414 3.046 1.208.661.794 1.01 1.916 1.01 3.35V25.62h4.682v-9.91c.017-2.486-.644-4.454-1.932-5.835zm32.027 6.992c0-1.26-.227-2.434-.662-3.539-.452-1.088-1.079-2.054-1.862-2.883-.8-.829-1.758-1.468-2.872-1.934-1.114-.466-2.35-.69-3.69-.69-1.271 0-2.472.241-3.586.708-1.114.483-2.089 1.122-2.907 1.933-.818.812-1.48 1.778-1.95 2.883-.487 1.105-.713 2.296-.713 3.557 0 1.26.226 2.451.679 3.556.453 1.105 1.097 2.072 1.897 2.883.8.812 1.793 1.468 2.942 1.934 1.149.483 2.42.725 3.777.725 3.934 0 6.37-1.778 7.833-3.436l-3.342-2.52c-.697.829-2.368 1.95-4.456 1.95-1.306 0-2.385-.293-3.203-.897-.818-.587-1.375-1.416-1.67-2.434l-.053-.156H54.95v-1.64zm-13.803-1.605c0-1.278 1.48-3.505 4.664-3.522 3.186 0 4.683 2.227 4.683 3.504l-9.347.018z" transform="translate(-274 -841) translate(274 841) translate(0 .39) translate(.15 .61)"/>
                    </g>
                </g>
            </g>
        </g>
    </g>
</svg>
