<svg xmlns="http://www.w3.org/2000/svg" width="111" height="13" viewBox="0 0 111 13">
    <g fill="none" fill-rule="evenodd" opacity=".8">
        <g fill="#717180" fill-rule="nonzero">
            <g>
                <g>
                    <path d="M110 9.542c0 1.765-.515 2.286-1.924 2.71-1.528.462-4.24.748-5.854.748-1.91 0-4.291-.125-6.323-.589V10.37h11.208V7.595h-7.933c-2.385 0-3.272-.654-3.272-2.978V3.405c0-1.831.543-2.384 2.033-2.768C99.435.25 101.892 0 103.496 0c1.949 0 4.29.152 6.327.602v2.041H98.795V4.99h7.933c2.384 0 3.272.641 3.272 2.964v1.588M90.885 12.414c-2.323.46-4.662.586-6.926.586-2.264 0-4.646-.127-6.97-.586V.602C79.314.142 81.668 0 83.932 0c2.265 0 4.576.142 6.899.602v2.107H80.336v2.36h6.833v2.45h-6.833v2.788h10.549v2.107M72.984 12.414c-2.085.461-4.187.586-6.207.586-2.019 0-4.164-.125-6.248-.586V.294h3.345v9.857h9.11v2.263M56.517 12.488c-1.114.32-2.586.433-3.683.452l-5.15-10.38h-.289l-5.15 10.38c-1.098-.02-2.39-.133-3.503-.452L45.264.3h4.65l6.603 12.188" transform="translate(-1055 -850) translate(274 841) translate(781.15 9)"/>
                    <path d="M49.721 9.39c0 1.193-.984 2.16-2.18 2.16-1.197 0-2.164-.969-2.164-2.16 0-1.191.97-2.16 2.165-2.16 1.193 0 2.18.966 2.18 2.16M34.709 12.502c-1.068.306-2.21.418-3.346.438V7.644h-8.31v5.296c-1.136-.02-2.277-.132-3.345-.438V.527c1.068-.308 2.209-.419 3.345-.44v5.111h8.31V.088c1.135.02 2.276.131 3.346.439v11.975M15.047 2.74H9.18v9.987H5.867V2.74H0V.607C2.526.15 5.064.006 7.531.006c2.464 0 4.995.144 7.516.601V2.74" transform="translate(-1055 -850) translate(274 841) translate(781.15 9)"/>
                </g>
            </g>
        </g>
    </g>
</svg>
