<svg xmlns="http://www.w3.org/2000/svg" width="20" height="20" viewBox="0 0 20 20">
    <g fill="none" fill-rule="evenodd">
        <g fill="#F06938">
            <g>
                <path d="M10 0c5.523 0 10 4.477 10 10s-4.477 10-10 10S0 15.523 0 10 4.477 0 10 0zm.47 6.303l-.089.078-3 3c-.313.314-.34.805-.078 1.148l.078.09 3 3c.342.341.896.341 1.238 0 .313-.314.34-.805.078-1.148l-.078-.09L9.237 10l2.382-2.381c.313-.314.34-.805.078-1.148l-.078-.09c-.314-.313-.805-.34-1.148-.078z" transform="translate(-97 -2) matrix(-1 0 0 1 117 2)"/>
            </g>
        </g>
    </g>
</svg>
