<svg xmlns="http://www.w3.org/2000/svg" width="15" height="16" viewBox="0 0 15 16">
    <g fill-rule="evenodd">
        <g fill-rule="nonzero">
            <g>
                <g>
                    <path d="M12 15C12 8.417 6.582 3 0 3V0c8.228 0 15 6.772 15 15h-3zm-9.943-4.116c1.134 0 2.058.925 2.058 2.06 0 1.133-.928 2.056-2.063 2.056C.919 15 0 14.079 0 12.944s.922-2.059 2.057-2.06zM9.943 15H7.028c0-3.856-3.172-7.028-7.028-7.028V5.056c5.454 0 9.943 4.49 9.943 9.944z" transform="translate(-1265 -468) translate(1120 467) translate(145 1.5)"/>
                </g>
            </g>
        </g>
    </g>
</svg>
