<svg xmlns="http://www.w3.org/2000/svg" width="21" height="15" viewBox="0 0 21 15">
    <g fill-rule="evenodd">
        <g fill-rule="nonzero">
            <g>
                <g>
                    <path d="M20.56 2.343c-.24-.922-.948-1.644-1.856-1.895C17.067 0 10.5 0 10.5 0S3.933 0 2.295.448C1.388.699.681 1.421.44 2.343 0 4.013 0 7.5 0 7.5s0 3.486.44 5.157c.24.922.948 1.644 1.856 1.895C3.933 15 10.5 15 10.5 15s6.567 0 8.205-.448c.908-.25 1.615-.973 1.857-1.895C21 10.987 21 7.5 21 7.5s0-3.486-.44-5.157zM8.353 10.665v-6.33L13.84 7.5l-5.49 3.165z" transform="translate(-1226 -469) translate(1120 467) translate(106 2)"/>
                </g>
            </g>
        </g>
    </g>
</svg>
