<?xml version="1.0" encoding="utf-8"?><svg xmlns="http://www.w3.org/2000/svg" xmlns:xlink="http://www.w3.org/1999/xlink"><symbol viewBox="0 0 10 6" id="arrow-down" xmlns="http://www.w3.org/2000/svg"><path d="M1.5 1.5L5 5l3.5-3.5" stroke-width="1.25" fill-rule="evenodd" stroke-linecap="round" stroke-linejoin="round"/></symbol><symbol viewBox="0 0 6 10" id="arrow-left" xmlns="http://www.w3.org/2000/svg"><path d="M5 1L1 5l4 4" stroke-width="1.75" fill-rule="evenodd" stroke-linecap="round" stroke-linejoin="round"/></symbol><symbol viewBox="0 0 6 10" id="arrow-right" xmlns="http://www.w3.org/2000/svg"><path d="M1 1l4 4-4 4" stroke-width="1.75" fill-rule="evenodd" stroke-linecap="round" stroke-linejoin="round"/></symbol><symbol viewBox="0 0 20 20" id="arrow-right-circle" xmlns="http://www.w3.org/2000/svg"><path d="M10 0C4.477 0 0 4.477 0 10s4.477 10 10 10 10-4.477 10-10S15.523 0 10 0zm-.47 6.303l.089.078 3 3c.313.314.34.805.078 1.148l-.078.09-3 3a.875.875 0 01-1.316-1.148l.078-.09L10.763 10 8.381 7.619a.875.875 0 01-.078-1.148l.078-.09a.875.875 0 011.148-.078z" fill-rule="evenodd"/></symbol><symbol viewBox="0 0 20 20" id="arrow-right-circle-orange" xmlns="http://www.w3.org/2000/svg"><path d="M10 0C4.477 0 0 4.477 0 10s4.477 10 10 10 10-4.477 10-10S15.523 0 10 0zm-.47 6.303l.089.078 3 3c.313.314.34.805.078 1.148l-.078.09-3 3a.875.875 0 01-1.316-1.148l.078-.09L10.763 10 8.381 7.619a.875.875 0 01-.078-1.148l.078-.09a.875.875 0 011.148-.078z" fill="#F06938" fill-rule="evenodd"/></symbol><symbol viewBox="0 0 12 10" id="check" xmlns="http://www.w3.org/2000/svg"><path d="M1 5.091L4.667 9 11 1" stroke-width="2" fill-rule="evenodd" stroke-linecap="round" stroke-linejoin="round"/></symbol><symbol viewBox="0 0 14 14" id="close" xmlns="http://www.w3.org/2000/svg"><path d="M1 1l12 12m0-12L1 13" stroke-width="1.5" fill-rule="evenodd" stroke-linecap="round"/></symbol><symbol viewBox="0 0 12 10" id="done" xmlns="http://www.w3.org/2000/svg"><path d="M1 5.091L4.667 9 11 1" stroke="#FFF" stroke-width="2" fill="none" fill-rule="evenodd" stroke-linecap="round" stroke-linejoin="round"/></symbol><symbol viewBox="0 0 24 24" id="early-adopters-and-pilot-clients" xmlns="http://www.w3.org/2000/svg"><g fill="none" fill-rule="evenodd"><path d="M0 0h24v24H0z"/><path fill="#F06938" fill-rule="nonzero" d="M19.93 8.21l-3.6 1.68L14 7.7V6.3l2.33-2.19 3.6 1.68c.38.18.82.01 1-.36.18-.38.01-.82-.36-1L16.65 2.6a.993.993 0 00-1.13.2l-1.74 1.6A.975.975 0 0013 4c-.55 0-1 .45-1 1v1H8.82C8.34 4.65 6.98 3.73 5.4 4.07c-1.16.25-2.15 1.25-2.36 2.43-.22 1.32.46 2.47 1.48 3.08L7.08 18H4v3h13v-3h-3.62L8.41 8.77c.17-.24.31-.49.41-.77H12v1c0 .55.45 1 1 1 .32 0 .6-.16.78-.4l1.74 1.6c.3.3.75.38 1.13.2l3.92-1.83c.38-.18.54-.62.36-1a.753.753 0 00-1-.36zM6 8c-.55 0-1-.45-1-1s.45-1 1-1 1 .45 1 1-.45 1-1 1z"/></g></symbol><symbol viewBox="0 0 18 18" id="facebook" xmlns="http://www.w3.org/2000/svg"><path d="M18 9.055C18 4.055 13.97 0 9 0S0 4.054 0 9.055c0 4.52 3.291 8.265 7.594 8.944v-6.327H5.309V9.054h2.285V7.06c0-2.269 1.344-3.523 3.4-3.523.983 0 2.014.178 2.014.178v2.228h-1.135c-1.119 0-1.467.698-1.467 1.414v1.698H12.9l-.399 2.618h-2.097V18C14.71 17.32 18 13.574 18 9.055z" fill-rule="nonzero"/></symbol><symbol viewBox="0 0 24 24" id="integration" xmlns="http://www.w3.org/2000/svg"><g fill="none" fill-rule="evenodd"><path d="M0 0h24v24H0z"/><path fill="#F06938" fill-rule="nonzero" d="M16.01 7L16 3h-2v4h-4V3H8v4h-.01C7 6.99 6 7.99 6 8.99v5.49L9.5 18v3h5v-3l3.5-3.51v-5.5c0-1-1-2-1.99-1.99z"/></g></symbol><symbol viewBox="0 0 16 16" id="link-open" xmlns="http://www.w3.org/2000/svg"><path d="M14 14H2V2h5V0H2a2 2 0 00-2 2v12a2 2 0 002 2h12c1.1 0 2-.9 2-2V9h-2v5zM9 0v2h3.59L4.76 9.83l1.41 1.41L14 3.41V7h2V0H9z" fill="#F06938" fill-rule="nonzero"/></symbol><symbol viewBox="0 0 16 17" id="linkedin" xmlns="http://www.w3.org/2000/svg"><path d="M13.631 14.535h-2.369v-3.713c0-.885-.018-2.025-1.235-2.025-1.235 0-1.424.964-1.424 1.96v3.778H6.234V6.9H8.51v1.04h.03c.319-.6 1.092-1.233 2.247-1.233 2.401 0 2.845 1.58 2.845 3.637v4.19zM3.558 5.855a1.374 1.374 0 01-1.375-1.376 1.374 1.374 0 112.751 0c0 .759-.617 1.376-1.376 1.376zm1.188 8.68H2.37V6.9h2.376v7.635zM14.816.9H1.182C.528.9 0 1.416 0 2.053v13.694c0 .638.528 1.153 1.18 1.153h13.635c.652 0 1.185-.515 1.185-1.153V2.053C16 1.416 15.467.9 14.815.9h.002z" fill-rule="nonzero"/></symbol><symbol viewBox="0 0 32 32" id="play" xmlns="http://www.w3.org/2000/svg"><g fill="none" fill-rule="evenodd"><path d="M0 0h32v32H0z"/><path fill="#FFF" fill-rule="nonzero" d="M10.667 6.667v18.666L25.333 16z"/></g></symbol><symbol viewBox="0 0 24 24" id="reduce-the-attack" xmlns="http://www.w3.org/2000/svg"><g fill="none" fill-rule="evenodd"><path d="M0 0h24v24H0z"/><path fill="#F06938" fill-rule="nonzero" d="M12 2L4 5v6.09c0 5.05 3.41 9.76 8 10.91 4.59-1.15 8-5.86 8-10.91V5l-8-3zm-1.06 13.54L7.4 12l1.41-1.41 2.12 2.12 4.24-4.24 1.41 1.41-5.64 5.66z"/></g></symbol><symbol viewBox="0 0 24 24" id="reduce-the-cost" xmlns="http://www.w3.org/2000/svg"><g fill="none" fill-rule="evenodd"><path d="M0 0h24v24H0z"/><path fill="#F06938" fill-rule="nonzero" d="M19 14V6c0-1.1-.9-2-2-2H3c-1.1 0-2 .9-2 2v8c0 1.1.9 2 2 2h14c1.1 0 2-.9 2-2zm-9-1c-1.66 0-3-1.34-3-3s1.34-3 3-3 3 1.34 3 3-1.34 3-3 3zm13-6v11c0 1.1-.9 2-2 2H4v-2h17V7h2z"/></g></symbol><symbol viewBox="0 0 15 16" id="rss" xmlns="http://www.w3.org/2000/svg"><path d="M12 15.5c0-6.583-5.418-12-12-12v-3c8.228 0 15 6.772 15 15h-3zm-9.943-4.116c1.134 0 2.058.925 2.058 2.06A2.064 2.064 0 012.052 15.5C.919 15.5 0 14.579 0 13.444s.922-2.059 2.057-2.06zM9.943 15.5H7.028c0-3.856-3.172-7.028-7.028-7.028V5.556c5.454 0 9.943 4.49 9.943 9.944z" fill-rule="nonzero"/></symbol><symbol viewBox="0 0 24 24" id="search" xmlns="http://www.w3.org/2000/svg"><g fill="none" fill-rule="evenodd"><path d="M0 0h24v24H0z"/><path fill="#F06938" fill-rule="nonzero" d="M15.5 14h-.79l-.28-.27A6.471 6.471 0 0016 9.5 6.5 6.5 0 109.5 16c1.61 0 3.09-.59 4.23-1.57l.27.28v.79l5 4.99L20.49 19l-4.99-5zm-6 0C7.01 14 5 11.99 5 9.5S7.01 5 9.5 5 14 7.01 14 9.5 11.99 14 9.5 14z"/></g></symbol><symbol viewBox="0 0 19 16" id="twitter" xmlns="http://www.w3.org/2000/svg"><path d="M19 2.276c-.699.3-1.45.504-2.238.596A3.814 3.814 0 0018.475.776 7.92 7.92 0 0116 1.695 3.948 3.948 0 0013.155.5c-2.152 0-3.898 1.696-3.898 3.788 0 .296.035.583.1.861a11.18 11.18 0 01-8.034-3.956 3.693 3.693 0 00-.527 1.903c0 1.314.688 2.474 1.734 3.152a3.97 3.97 0 01-1.766-.474v.05c0 1.834 1.343 3.364 3.127 3.712a4.043 4.043 0 01-1.761.065c.497 1.504 1.936 2.6 3.642 2.629a7.971 7.971 0 01-4.841 1.622c-.315 0-.626-.018-.931-.053A11.264 11.264 0 005.975 15.5c7.17 0 11.091-5.77 11.091-10.773 0-.163-.004-.327-.012-.49a7.766 7.766 0 001.944-1.959L19 2.276z" fill-rule="nonzero"/></symbol><symbol viewBox="0 0 21 15" id="youtube" xmlns="http://www.w3.org/2000/svg"><path d="M20.56 2.343A2.655 2.655 0 0018.704.448C17.067 0 10.5 0 10.5 0S3.933 0 2.295.448A2.657 2.657 0 00.44 2.343C0 4.013 0 7.5 0 7.5s0 3.486.44 5.157c.24.922.948 1.644 1.856 1.895C3.933 15 10.5 15 10.5 15s6.567 0 8.205-.448a2.658 2.658 0 001.857-1.895C21 10.987 21 7.5 21 7.5s0-3.486-.44-5.157zM8.353 10.665v-6.33L13.84 7.5l-5.49 3.165z" fill-rule="nonzero"/></symbol></svg>